<svg width="574" height="118" xmlns="http://www.w3.org/2000/svg" xml:space="preserve" enable-background="new 0 0 644 198" version="1.1">

 <g>
  <title>Layer 1</title>
  <g id="svg_1" display="none">
   <path id="svg_2" d="m88.403,5.906l16,0l0,3.965l-11.231,0l0,19.658l-4.77,0l0.001,-23.623l0,0z" fill="#0F66B0" display="inline"/>
   <path id="svg_3" d="m104.145,20.73c0,-1.504 0.371,-2.959 1.112,-4.367c0.741,-1.408 1.791,-2.48 3.15,-3.223c1.358,-0.742 2.876,-1.111 4.552,-1.111c2.589,0 4.71,0.84 6.365,2.521c1.653,1.682 2.48,3.807 2.48,6.373c0,2.59 -0.835,4.734 -2.506,6.438c-1.671,1.704 -3.772,2.553 -6.308,2.553c-1.568,0 -3.064,-0.354 -4.488,-1.063s-2.505,-1.748 -3.247,-3.117c-0.739,-1.369 -1.11,-3.037 -1.11,-5.004zm4.641,0.243c0,1.697 0.403,2.998 1.208,3.898c0.805,0.902 1.799,1.354 2.98,1.354c1.183,0 2.173,-0.451 2.974,-1.354c0.801,-0.902 1.201,-2.213 1.201,-3.932c0,-1.676 -0.4,-2.965 -1.201,-3.867c-0.801,-0.902 -1.791,-1.354 -2.974,-1.354c-1.182,0 -2.175,0.449 -2.98,1.354c-0.805,0.905 -1.208,2.203 -1.208,3.901z" fill="#0F66B0" display="inline"/>
   <path id="svg_4" d="m125.221,12.418l4.223,0l0,2.514c0.548,-0.859 1.289,-1.559 2.224,-2.096s1.971,-0.807 3.11,-0.807c1.986,0 3.674,0.779 5.06,2.336c1.386,1.559 2.079,3.73 2.079,6.512c0,2.855 -0.698,5.078 -2.095,6.662c-1.396,1.584 -3.088,2.377 -5.076,2.377c-0.945,0 -1.802,-0.188 -2.57,-0.563c-0.768,-0.377 -1.576,-1.021 -2.425,-1.936l0,8.621l-4.528,0l-0.002,-23.62l0,0zm4.48,8.266c0,1.922 0.381,3.342 1.144,4.262c0.764,0.918 1.692,1.377 2.788,1.377c1.053,0 1.928,-0.422 2.626,-1.266c0.698,-0.844 1.047,-2.227 1.047,-4.148c0,-1.795 -0.359,-3.127 -1.08,-3.996c-0.72,-0.869 -1.61,-1.305 -2.675,-1.305c-1.105,0 -2.024,0.426 -2.755,1.281c-0.73,0.853 -1.095,2.119 -1.095,3.795z" fill="#0F66B0" display="inline"/>
   <path id="svg_5" d="m144.461,20.73c0,-1.504 0.371,-2.959 1.112,-4.367c0.741,-1.408 1.791,-2.48 3.149,-3.223c1.359,-0.742 2.876,-1.111 4.553,-1.111c2.589,0 4.71,0.84 6.364,2.521c1.654,1.682 2.48,3.807 2.48,6.373c0,2.59 -0.834,4.734 -2.506,6.438c-1.67,1.703 -3.772,2.553 -6.309,2.553c-1.567,0 -3.063,-0.354 -4.487,-1.063c-1.425,-0.709 -2.505,-1.748 -3.247,-3.117c-0.739,-1.369 -1.109,-3.037 -1.109,-5.004zm4.64,0.243c0,1.697 0.403,2.998 1.208,3.898c0.806,0.902 1.8,1.354 2.981,1.354s2.172,-0.451 2.973,-1.354c0.802,-0.902 1.201,-2.213 1.201,-3.932c0,-1.676 -0.399,-2.965 -1.201,-3.867c-0.801,-0.902 -1.791,-1.354 -2.973,-1.354s-2.175,0.449 -2.981,1.354c-0.806,0.905 -1.208,2.203 -1.208,3.901z" fill="#0F66B0" display="inline"/>
   <path id="svg_6" d="m179.378,29.529l-12.955,0l0,4.512l-3.674,0l0,-8.219l1.853,0c0.773,-0.857 1.413,-2.201 1.917,-4.027c0.505,-1.824 0.808,-4.951 0.902,-9.377l13.81,0l0,13.404l1.838,0l0,8.219l-3.69,0l-0.001,-4.512l0,0zm-2.626,-3.707l0.016,-9.684l-5.479,0c-0.184,4.727 -0.936,7.955 -2.256,9.684l7.719,0z" fill="#0F66B0" display="inline"/>
   <path id="svg_7" d="m195.395,5.906l9.442,0c1.868,0 3.263,0.078 4.182,0.234c0.918,0.154 1.74,0.479 2.466,0.975c0.727,0.494 1.33,1.152 1.813,1.975c0.483,0.82 0.726,1.742 0.726,2.764c0,1.105 -0.299,2.121 -0.896,3.045c-0.597,0.924 -1.404,1.617 -2.425,2.078c1.438,0.42 2.546,1.133 3.318,2.143c0.772,1.012 1.159,2.197 1.159,3.563c0,1.074 -0.25,2.119 -0.749,3.135c-0.5,1.016 -1.182,1.826 -2.047,2.434c-0.863,0.605 -1.932,0.979 -3.197,1.119c-0.796,0.086 -2.713,0.141 -5.753,0.16l-8.041,0l0.002,-23.625l0,0zm4.769,3.934l0,5.461l3.125,0c1.859,0 3.014,-0.025 3.465,-0.08c0.816,-0.098 1.458,-0.379 1.925,-0.846c0.47,-0.469 0.701,-1.084 0.701,-1.846c0,-0.73 -0.201,-1.324 -0.604,-1.781c-0.402,-0.455 -1,-0.732 -1.796,-0.83c-0.474,-0.055 -1.831,-0.08 -4.077,-0.08l-2.738,0l-0.001,0.002l0,0zm0,9.392l0,6.316l4.414,0c1.72,0 2.81,-0.049 3.271,-0.146c0.709,-0.129 1.286,-0.441 1.732,-0.941c0.445,-0.5 0.669,-1.168 0.669,-2.006c0,-0.709 -0.173,-1.311 -0.517,-1.805c-0.345,-0.494 -0.842,-0.854 -1.49,-1.08c-0.649,-0.227 -2.061,-0.338 -4.229,-0.338l-3.85,0l0,0z" fill="#E9415A" display="inline"/>
   <path id="svg_8" d="m218.131,20.73c0,-1.504 0.371,-2.959 1.111,-4.367c0.742,-1.408 1.791,-2.48 3.149,-3.223c1.359,-0.742 2.876,-1.111 4.554,-1.111c2.588,0 4.709,0.84 6.363,2.521c1.654,1.681 2.48,3.807 2.48,6.373c0,2.59 -0.834,4.734 -2.506,6.438c-1.67,1.703 -3.772,2.553 -6.309,2.553c-1.566,0 -3.063,-0.354 -4.486,-1.063c-1.426,-0.709 -2.506,-1.748 -3.248,-3.117c-0.738,-1.369 -1.108,-3.037 -1.108,-5.004zm4.639,0.243c0,1.697 0.403,2.998 1.208,3.898c0.806,0.902 1.8,1.354 2.981,1.354s2.172,-0.451 2.973,-1.354c0.803,-0.902 1.201,-2.213 1.201,-3.932c0,-1.676 -0.398,-2.965 -1.201,-3.867c-0.801,-0.902 -1.791,-1.354 -2.973,-1.354s-2.176,0.449 -2.981,1.354c-0.805,0.905 -1.208,2.203 -1.208,3.901z" fill="#E9415A" display="inline"/>
   <path id="svg_9" d="m239.738,12.418l15.164,0l0,17.111l-4.514,0l0,-13.437l-6.171,0l0,7.686c0,1.955 -0.226,3.328 -0.677,4.117c-0.451,0.791 -0.951,1.309 -1.499,1.555c-0.548,0.248 -1.429,0.371 -2.644,0.371c-0.721,0 -1.67,-0.096 -2.853,-0.289l0,-3.336c0.097,0 0.351,0.012 0.757,0.033c0.475,0.031 0.838,0.047 1.098,0.047c0.61,0 0.986,-0.201 1.127,-0.604c0.141,-0.4 0.209,-1.521 0.209,-3.357l0.003,-9.897l0,0z" fill="#E9415A" display="inline"/>
   <path id="svg_10" d="m257.995,20.73c0,-1.504 0.371,-2.959 1.111,-4.367c0.74,-1.408 1.791,-2.48 3.149,-3.223c1.358,-0.743 2.876,-1.111 4.552,-1.111c2.59,0 4.71,0.84 6.365,2.521c1.654,1.682 2.48,3.807 2.48,6.373c0,2.59 -0.835,4.734 -2.506,6.438c-1.672,1.703 -3.772,2.553 -6.309,2.553c-1.568,0 -3.063,-0.354 -4.488,-1.063c-1.424,-0.709 -2.505,-1.748 -3.247,-3.117c-0.737,-1.369 -1.107,-3.037 -1.107,-5.004zm4.64,0.243c0,1.697 0.403,2.998 1.208,3.898c0.806,0.902 1.799,1.354 2.981,1.354c1.182,0 2.172,-0.451 2.973,-1.354c0.801,-0.903 1.201,-2.213 1.201,-3.932c0,-1.676 -0.4,-2.965 -1.201,-3.867c-0.801,-0.902 -1.791,-1.354 -2.973,-1.354c-1.184,0 -2.176,0.449 -2.981,1.354c-0.805,0.905 -1.208,2.203 -1.208,3.901z" fill="#E9415A" display="inline"/>
   <path id="svg_11" d="m279.022,12.418l11.554,0l0,3.656l-7.024,0l0,13.455l-4.527,0l-0.003,-17.111l0,0z" fill="#E9415A" display="inline"/>
   <path id="svg_12" d="m305.834,29.529l-12.955,0l0,4.512l-3.674,0l0,-8.219l1.854,0c0.773,-0.857 1.412,-2.201 1.918,-4.027c0.505,-1.824 0.807,-4.951 0.902,-9.377l13.81,0l0,13.404l1.837,0l0,8.219l-3.689,0l-0.003,-4.512l0,0zm-2.626,-3.707l0.017,-9.684l-5.479,0c-0.186,4.727 -0.938,7.955 -2.257,9.684l7.719,0z" fill="#E9415A" display="inline"/>
   <path id="svg_13" d="m316.018,17.639l-4.106,-0.742c0.462,-1.654 1.257,-2.879 2.385,-3.674s2.804,-1.191 5.027,-1.191c2.02,0 3.521,0.238 4.512,0.717c0.988,0.479 1.684,1.086 2.087,1.82c0.402,0.736 0.604,2.086 0.604,4.053l-0.049,5.285c0,1.504 0.071,2.613 0.219,3.328c0.146,0.713 0.416,1.479 0.813,2.295l-4.479,0c-0.117,-0.301 -0.266,-0.746 -0.438,-1.336c-0.074,-0.27 -0.129,-0.447 -0.16,-0.533c-0.771,0.752 -1.602,1.316 -2.48,1.693c-0.879,0.375 -1.82,0.563 -2.819,0.563c-1.762,0 -3.149,-0.479 -4.165,-1.434c-1.016,-0.957 -1.522,-2.166 -1.522,-3.625c0,-0.967 0.23,-1.83 0.692,-2.586c0.462,-0.758 1.109,-1.338 1.941,-1.74c0.833,-0.402 2.032,-0.756 3.602,-1.057c2.116,-0.396 3.582,-0.77 4.398,-1.111l0,-0.451c0,-0.869 -0.216,-1.49 -0.646,-1.859c-0.43,-0.371 -1.239,-0.559 -2.433,-0.559c-0.807,0 -1.436,0.16 -1.887,0.477c-0.45,0.317 -0.817,0.87 -1.096,1.667zm6.058,3.672c-0.58,0.193 -1.498,0.424 -2.756,0.693c-1.257,0.27 -2.078,0.531 -2.466,0.789c-0.592,0.42 -0.887,0.951 -0.887,1.596c0,0.635 0.236,1.182 0.709,1.645c0.474,0.461 1.074,0.693 1.806,0.693c0.815,0 1.596,-0.271 2.337,-0.807c0.548,-0.408 0.906,-0.908 1.079,-1.5c0.117,-0.387 0.178,-1.123 0.178,-2.207l0,-0.902l0,0z" fill="#E9415A" display="inline"/>
  </g>
  <g id="svg_14">
   <path id="svg_15" d="m401.882,43.932l-39.271,0c-0.508,0 -0.762,0.256 -0.762,0.76c-1.014,17.732 -4.305,36.988 -9.117,52.441l0,0.508c0.254,0.252 0.506,0.252 0.762,0.252l13.681,0c0.253,0 0.761,-0.252 0.761,-0.506c3.797,-11.908 6.84,-27.867 7.854,-41.041l12.921,0l0,41.041c0,0.506 0.253,0.76 0.759,0.76l12.922,0c0.506,0 0.76,-0.254 0.76,-0.76l0,-52.696c-0.511,-0.503 -0.763,-0.759 -1.27,-0.759m166.442,0l-12.922,0c-0.507,0 -0.761,0.256 -0.761,0.76l0,40.788c-2.787,0.76 -5.574,1.012 -8.867,1.012c-8.61,0 -10.386,-2.533 -10.386,-13.934l0,-27.867c0,-0.504 -0.256,-0.76 -0.76,-0.76l-12.92,0c-0.507,0 -0.761,0.256 -0.761,0.76l0,29.389c0,18.24 6.083,25.586 22.043,25.586c8.861,0 19.251,-2.277 25.077,-4.561c0.254,0 0.507,-0.508 0.507,-0.76l0,-49.654c0.512,-0.503 0.259,-0.759 -0.25,-0.759m-272.337,0.256l-13.177,0c-0.507,0 -0.76,0.25 -0.76,0.504c-2.024,8.107 -6.081,21.787 -11.907,35.975l-12.92,-36.479c0,-0.256 -0.507,-0.508 -0.761,-0.508l-13.171,0c-0.255,0 -0.507,0.252 -0.763,0.252c-0.254,0.254 -0.254,0.506 0,0.758l20.016,53.709c-2.027,4.055 -4.053,7.602 -5.576,10.895c-1.266,2.278 -2.533,4.813 -4.052,7.349c-0.255,0.254 0,0.508 0,0.76c0.252,0.254 0.507,0.508 0.759,0.508l14.187,0c0.255,0 0.508,-0.254 0.764,-0.508c2.278,-4.562 5.572,-11.146 8.359,-17.732c8.358,-19.762 15.199,-38.002 20.013,-54.977c0,-0.252 0,-0.504 -0.252,-0.76c-0.254,0.254 -0.507,0.254 -0.759,0.254m46.867,41.291c0,-0.254 -0.254,-0.506 -0.508,-0.506l-0.758,0c-3.041,1.014 -8.867,2.281 -13.175,2.281c-8.867,0 -13.176,-2.281 -13.176,-16.217c0,-10.893 1.268,-16.215 13.176,-16.215c3.292,0 6.586,0.508 10.386,1.775c0.508,0 0.76,0 0.76,-0.51c1.521,-2.783 3.297,-6.076 5.321,-10.387l0,-0.758c0,-0.256 -0.253,-0.508 -0.508,-0.508c-5.319,-1.773 -11.651,-2.533 -16.976,-2.533c-18.489,0 -26.854,8.613 -26.854,28.625c0,20.27 8.362,29.135 27.106,29.135c4.561,0 13.937,-1.012 18.492,-2.785c0.508,-0.256 0.508,-0.508 0.508,-0.76c0.004,-0.249 -3.794,-10.637 -3.794,-10.637l0,0zm122.363,-41.291l-13.176,0c-0.252,0 -0.759,0.25 -0.759,0.504c-2.025,8.107 -6.084,21.787 -11.908,35.975l-13.176,-36.229c0,-0.25 -0.506,-0.506 -0.76,-0.506l-13.173,0c-0.252,0 -0.507,0.254 -0.762,0.254c-0.251,0.252 -0.251,0.504 0,0.76l19.762,53.707c-2.023,4.055 -4.054,7.346 -5.573,10.895c-1.268,2.277 -2.529,4.813 -4.054,7.347c-0.253,0.254 0,0.506 0,0.762c0.253,0.252 0.505,0.504 0.76,0.504l14.188,0c0.253,0 0.509,-0.252 0.761,-0.504c2.28,-4.563 5.573,-11.148 8.36,-17.734c8.356,-19.762 15.2,-38 20.014,-54.975c0,-0.256 0,-0.508 -0.254,-0.76l-0.252,0m48.135,-0.256l-37.999,0c-0.51,0 -0.762,0.256 -0.762,0.76l0,52.697c0,0.504 0.252,0.758 0.762,0.758l12.919,0c0.507,0 0.762,-0.254 0.762,-0.758l0,-40.789l20.015,0c0.254,0 0.76,-0.252 0.76,-0.51c1.521,-3.545 3.04,-7.346 4.563,-11.145l0,-0.76c-0.766,0.003 -0.766,-0.253 -1.02,-0.253" fill="#EE3F58"/>
   <path id="svg_16" d="m156.142,87.758c-8.612,0 -11.145,-2.279 -11.145,-16.469c0,-15.199 2.785,-16.467 11.145,-16.467s11.401,1.268 11.401,16.467c0,14.19 -2.787,16.469 -11.401,16.469m0,-45.346c-18.492,0 -25.84,7.854 -25.84,28.627c0,21.027 7.095,28.881 25.84,28.881c18.748,0 26.095,-8.105 26.095,-28.881c-0.001,-20.519 -7.348,-28.627 -26.095,-28.627m77.268,43.067c0,-0.254 -0.252,-0.506 -0.506,-0.506l-0.761,0c-3.041,1.014 -8.866,2.281 -13.174,2.281c-8.866,0 -13.175,-2.281 -13.175,-16.217c0,-10.893 1.27,-16.215 13.175,-16.215c3.293,0 6.588,0.508 10.39,1.775c0.254,0 0.76,0 0.76,-0.51c1.519,-2.783 3.293,-6.076 5.316,-10.387l0,-0.758c0,-0.256 -0.253,-0.508 -0.506,-0.508c-5.064,-1.52 -11.398,-2.281 -16.972,-2.281c-18.748,0 -27.106,8.615 -27.106,28.629c0,20.27 8.359,29.135 27.106,29.135c4.56,0 13.934,-1.016 18.493,-2.789c0.508,-0.252 0.508,-0.508 0.508,-0.76c0.505,-0.247 -3.548,-10.889 -3.548,-10.889zm-106.908,-41.547l-38.002,0c-0.506,0 -0.759,0.256 -0.759,0.76l0,52.697c0,0.504 0.253,0.758 0.759,0.758l12.92,0c0.508,0 0.761,-0.254 0.761,-0.758l0,-40.789l20.015,0c0.253,0 0.505,-0.252 0.759,-0.51c1.521,-3.545 3.042,-7.346 4.561,-11.145l0,-0.76c-0.508,0.003 -0.761,-0.253 -1.014,-0.253" fill="#0065B1"/>
  </g>
  <g id="svg_17">
   <path id="svg_18" d="m87.901,29.532l0,-23.622l7.654,0c2.9,0 4.791,0.118 5.672,0.354c1.354,0.354 2.487,1.125 3.4,2.313c0.913,1.187 1.37,2.721 1.37,4.6c0,1.451 -0.263,2.67 -0.79,3.658s-1.195,1.765 -2.006,2.328c-0.811,0.564 -1.635,0.938 -2.473,1.12c-1.139,0.226 -2.788,0.339 -4.947,0.339l-3.11,0l0,8.91l-4.77,0zm4.769,-19.626l0,6.703l2.61,0c1.88,0 3.137,-0.123 3.771,-0.37c0.634,-0.247 1.13,-0.634 1.491,-1.16c0.359,-0.526 0.54,-1.139 0.54,-1.838c0,-0.858 -0.252,-1.567 -0.757,-2.127c-0.505,-0.558 -1.144,-0.907 -1.917,-1.047c-0.569,-0.107 -1.713,-0.161 -3.432,-0.161l-2.306,0z" fill="#0065B1"/>
   <path id="svg_19" d="m118.967,24.086l4.512,0.757c-0.58,1.655 -1.496,2.914 -2.747,3.779c-1.252,0.864 -2.817,1.297 -4.697,1.297c-2.976,0 -5.178,-0.972 -6.606,-2.916c-1.128,-1.558 -1.692,-3.523 -1.692,-5.898c0,-2.836 0.741,-5.057 2.224,-6.662c1.482,-1.606 3.357,-2.409 5.624,-2.409c2.546,0 4.555,0.841 6.026,2.521c1.472,1.682 2.175,4.257 2.111,7.727l-11.344,0c0.032,1.343 0.397,2.388 1.096,3.134c0.698,0.747 1.568,1.12 2.61,1.12c0.709,0 1.305,-0.193 1.789,-0.58c0.484,-0.387 0.847,-1.011 1.094,-1.87zm0.258,-4.576c-0.032,-1.311 -0.371,-2.307 -1.015,-2.989c-0.645,-0.682 -1.429,-1.023 -2.353,-1.023c-0.988,0 -1.805,0.36 -2.449,1.08c-0.644,0.72 -0.961,1.697 -0.951,2.933l6.768,-0.001l0,0z" fill="#0065B1"/>
   <path id="svg_20" d="m141.896,17.479l-4.463,0.806c-0.15,-0.892 -0.491,-1.563 -1.023,-2.015c-0.531,-0.451 -1.222,-0.676 -2.07,-0.676c-1.128,0 -2.028,0.389 -2.699,1.168c-0.671,0.778 -1.007,2.081 -1.007,3.907c0,2.03 0.341,3.464 1.023,4.302c0.682,0.838 1.598,1.258 2.747,1.258c0.859,0 1.563,-0.245 2.111,-0.733c0.548,-0.489 0.935,-1.329 1.16,-2.522l4.447,0.758c-0.462,2.041 -1.348,3.583 -2.659,4.625s-3.067,1.563 -5.269,1.563c-2.503,0 -4.499,-0.789 -5.986,-2.369c-1.488,-1.578 -2.232,-3.765 -2.232,-6.558c0,-2.825 0.747,-5.024 2.24,-6.599c1.493,-1.573 3.513,-2.36 6.059,-2.36c2.084,0 3.741,0.448 4.971,1.346c1.23,0.895 2.113,2.263 2.65,4.099z" fill="#0065B1"/>
   <path id="svg_21" d="m145.151,12.42l15.195,0l0,17.112l-4.528,0l0,-13.455l-6.139,0l0,13.455l-4.528,0l0,-17.112l0,0z" fill="#0065B1"/>
   <path id="svg_22" d="m163.118,12.42l4.818,0l4.093,12.149l3.996,-12.149l4.689,0l-6.042,16.468l-1.08,2.98c-0.397,1 -0.776,1.762 -1.136,2.289c-0.36,0.525 -0.773,0.953 -1.241,1.28c-0.467,0.328 -1.042,0.583 -1.724,0.766c-0.683,0.183 -1.453,0.274 -2.313,0.274c-0.87,0 -1.724,-0.092 -2.562,-0.274l-0.403,-3.545c0.709,0.14 1.348,0.21 1.917,0.21c1.053,0 1.832,-0.31 2.336,-0.927c0.505,-0.618 0.892,-1.405 1.16,-2.36l-6.508,-17.161z" fill="#0065B1"/>
   <path id="svg_23" d="m196.456,5.362l3.078,0c-0.097,1.364 -0.454,2.398 -1.072,3.102c-0.618,0.704 -2.14,1.056 -4.568,1.056c-0.29,0 -0.58,-0.005 -0.87,-0.017l-0.58,0c-1.439,0 -2.61,0.159 -3.513,0.476c-0.902,0.317 -1.641,0.933 -2.215,1.845c-0.575,0.914 -0.873,2.385 -0.895,4.416c0.666,-1.258 1.528,-2.197 2.586,-2.82c1.058,-0.623 2.318,-0.935 3.779,-0.935c2.245,0 4.146,0.873 5.704,2.618c1.558,1.746 2.336,3.769 2.336,6.066c0,2.396 -0.819,4.453 -2.457,6.172c-1.639,1.719 -3.779,2.578 -6.421,2.578c-1.815,0 -3.411,-0.436 -4.786,-1.305c-1.375,-0.871 -2.358,-2.061 -2.949,-3.569c-0.591,-1.51 -0.886,-4.01 -0.886,-7.501c0,-4.104 0.754,-7.052 2.264,-8.846c1.51,-1.794 4.144,-2.691 7.904,-2.691l2.288,0c0.634,0 1.058,-0.215 1.273,-0.645zm-9.12,15.742c0,1.559 0.389,2.791 1.168,3.698c0.779,0.908 1.732,1.362 2.86,1.362c1.214,0 2.21,-0.471 2.989,-1.41c0.778,-0.94 1.168,-2.151 1.168,-3.634c0,-1.515 -0.395,-2.736 -1.185,-3.666c-0.789,-0.929 -1.764,-1.394 -2.924,-1.394c-1.128,0 -2.089,0.457 -2.884,1.369c-0.795,0.916 -1.192,2.14 -1.192,3.675z" fill="#0065B1"/>
   <path id="svg_24" d="m204.4,12.42l15.163,0l0,17.112l-4.512,0l0,-13.438l-6.171,0l0,7.687c0,1.955 -0.226,3.327 -0.677,4.116c-0.451,0.79 -0.951,1.309 -1.499,1.556c-0.548,0.246 -1.429,0.37 -2.643,0.37c-0.72,0 -1.67,-0.097 -2.852,-0.29l0,-3.336c0.097,0 0.349,0.012 0.757,0.033c0.473,0.031 0.838,0.048 1.096,0.048c0.612,0 0.988,-0.201 1.128,-0.604c0.14,-0.402 0.209,-1.522 0.209,-3.359l0.001,-9.895l0,0z" fill="#0065B1"/>
   <path id="svg_25" d="m224.026,12.42l4.351,0l0,10.747l6.961,-10.747l4.447,0l0,17.112l-4.351,0l0,-10.941l-7.058,10.941l-4.351,0l0.001,-17.112l0,0z" fill="#0065B1"/>
   <path id="svg_26" d="m244.248,12.42l4.512,0l0,6.993c0.752,-0.086 1.284,-0.316 1.595,-0.693c0.312,-0.375 0.688,-1.197 1.128,-2.465c0.58,-1.687 1.214,-2.766 1.901,-3.238c0.687,-0.472 1.59,-0.709 2.707,-0.709c0.344,0 0.94,0.026 1.789,0.08l0.016,2.997c-1.192,0 -1.955,0.112 -2.288,0.339c-0.333,0.236 -0.693,0.939 -1.08,2.11c-0.526,1.579 -1.284,2.552 -2.272,2.917c1.429,0.397 2.637,1.638 3.625,3.722c0.054,0.107 0.113,0.221 0.177,0.339l2.53,4.721l-4.866,0l-2.256,-4.947c-0.462,-0.998 -0.862,-1.641 -1.2,-1.925c-0.339,-0.285 -0.841,-0.427 -1.507,-0.427l0,7.299l-4.512,0l0.001,-17.113l0,0z" fill="#0065B1"/>
   <path id="svg_27" d="m264.325,17.641l-4.109,-0.741c0.462,-1.654 1.257,-2.879 2.385,-3.674s2.804,-1.192 5.027,-1.192c2.02,0 3.523,0.239 4.512,0.717c0.988,0.479 1.684,1.085 2.087,1.821c0.402,0.735 0.604,2.086 0.604,4.053l-0.048,5.285c0,1.504 0.072,2.612 0.218,3.327c0.145,0.714 0.416,1.479 0.813,2.296l-4.479,0c-0.118,-0.301 -0.263,-0.746 -0.435,-1.338c-0.075,-0.268 -0.129,-0.445 -0.161,-0.531c-0.773,0.752 -1.601,1.316 -2.481,1.691c-0.881,0.376 -1.821,0.564 -2.82,0.564c-1.762,0 -3.15,-0.478 -4.165,-1.434c-1.016,-0.956 -1.523,-2.165 -1.523,-3.626c0,-0.967 0.231,-1.829 0.693,-2.586c0.462,-0.758 1.109,-1.338 1.941,-1.74c0.833,-0.403 2.033,-0.755 3.602,-1.056c2.116,-0.397 3.583,-0.768 4.399,-1.111l0,-0.451c0,-0.871 -0.215,-1.491 -0.645,-1.861c-0.43,-0.371 -1.241,-0.557 -2.433,-0.557c-0.806,0 -1.434,0.159 -1.885,0.476c-0.452,0.317 -0.818,0.873 -1.097,1.668zm6.059,3.673c-0.58,0.193 -1.499,0.425 -2.755,0.692c-1.257,0.27 -2.079,0.532 -2.465,0.79c-0.591,0.419 -0.886,0.95 -0.886,1.595c0,0.635 0.236,1.183 0.709,1.645c0.473,0.462 1.074,0.692 1.805,0.692c0.816,0 1.595,-0.269 2.336,-0.806c0.548,-0.408 0.908,-0.907 1.08,-1.498c0.118,-0.387 0.177,-1.123 0.177,-2.208l-0.001,-0.902l0,0z" fill="#0065B1"/>
   <path id="svg_28" d="m303.609,20.847l4.625,1.467c-0.709,2.578 -1.888,4.493 -3.537,5.744c-1.649,1.252 -3.741,1.877 -6.276,1.877c-3.137,0 -5.715,-1.071 -7.734,-3.214c-2.02,-2.144 -3.029,-5.073 -3.029,-8.79c0,-3.932 1.015,-6.985 3.045,-9.16c2.03,-2.176 4.7,-3.264 8.008,-3.264c2.89,0 5.237,0.854 7.042,2.563c1.074,1.01 1.88,2.46 2.417,4.351l-4.721,1.128c-0.279,-1.225 -0.862,-2.191 -1.749,-2.9c-0.886,-0.709 -1.963,-1.063 -3.23,-1.063c-1.751,0 -3.172,0.628 -4.262,1.886c-1.091,1.256 -1.636,3.292 -1.636,6.106c0,2.986 0.537,5.113 1.611,6.381c1.074,1.268 2.471,1.901 4.189,1.901c1.268,0 2.358,-0.402 3.271,-1.209c0.914,-0.806 1.569,-2.074 1.966,-3.804z" fill="#EE3F58"/>
   <path id="svg_29" d="m316.081,17.641l-4.109,-0.741c0.462,-1.654 1.257,-2.879 2.385,-3.674s2.804,-1.192 5.027,-1.192c2.02,0 3.524,0.239 4.513,0.717c0.987,0.479 1.684,1.085 2.086,1.821c0.401,0.735 0.604,2.086 0.604,4.053l-0.047,5.285c0,1.504 0.072,2.612 0.217,3.327c0.145,0.714 0.416,1.479 0.814,2.296l-4.48,0c-0.117,-0.301 -0.263,-0.746 -0.436,-1.338c-0.074,-0.268 -0.129,-0.445 -0.16,-0.531c-0.773,0.752 -1.601,1.316 -2.481,1.691c-0.881,0.376 -1.821,0.564 -2.82,0.564c-1.762,0 -3.15,-0.478 -4.165,-1.434c-1.016,-0.956 -1.523,-2.165 -1.523,-3.626c0,-0.967 0.231,-1.829 0.693,-2.586c0.462,-0.758 1.109,-1.338 1.941,-1.74c0.833,-0.403 2.033,-0.755 3.602,-1.056c2.116,-0.397 3.583,-0.768 4.399,-1.111l0,-0.451c0,-0.871 -0.215,-1.491 -0.645,-1.861c-0.43,-0.371 -1.241,-0.557 -2.433,-0.557c-0.806,0 -1.434,0.159 -1.885,0.476c-0.452,0.317 -0.818,0.873 -1.097,1.668zm6.059,3.673c-0.58,0.193 -1.499,0.425 -2.755,0.692c-1.257,0.27 -2.079,0.532 -2.465,0.79c-0.591,0.419 -0.886,0.95 -0.886,1.595c0,0.635 0.236,1.183 0.709,1.645c0.473,0.462 1.074,0.692 1.805,0.692c0.816,0 1.595,-0.269 2.336,-0.806c0.548,-0.408 0.908,-0.907 1.08,-1.498c0.118,-0.387 0.177,-1.123 0.177,-2.208l-0.001,-0.902l0,0z" fill="#EE3F58"/>
   <path id="svg_30" d="m328.875,29.532l6.172,-8.814l-5.914,-8.298l5.527,0l3.029,4.705l3.188,-4.705l5.317,0l-5.801,8.104l6.332,9.008l-5.559,0l-3.48,-5.301l-3.514,5.301l-5.297,0l0,0z" fill="#EE3F58"/>
   <path id="svg_31" d="m352.787,17.641l-4.107,-0.741c0.461,-1.654 1.256,-2.879 2.385,-3.674c1.127,-0.795 2.804,-1.192 5.026,-1.192c2.021,0 3.523,0.239 4.513,0.717c0.987,0.479 1.684,1.085 2.086,1.821c0.402,0.735 0.604,2.086 0.604,4.053l-0.048,5.285c0,1.504 0.072,2.612 0.218,3.327c0.146,0.714 0.416,1.479 0.813,2.296l-4.479,0c-0.118,-0.301 -0.264,-0.746 -0.437,-1.338c-0.074,-0.268 -0.129,-0.445 -0.159,-0.531c-0.773,0.752 -1.603,1.316 -2.482,1.691c-0.881,0.376 -1.819,0.564 -2.819,0.564c-1.762,0 -3.149,-0.478 -4.164,-1.434c-1.017,-0.956 -1.523,-2.165 -1.523,-3.626c0,-0.967 0.23,-1.829 0.693,-2.586c0.462,-0.758 1.109,-1.338 1.941,-1.74c0.832,-0.403 2.032,-0.755 3.602,-1.056c2.115,-0.397 3.582,-0.768 4.398,-1.111l0,-0.451c0,-0.871 -0.216,-1.491 -0.646,-1.861c-0.431,-0.371 -1.24,-0.557 -2.433,-0.557c-0.807,0 -1.436,0.159 -1.887,0.476c-0.45,0.317 -0.816,0.873 -1.095,1.668zm6.059,3.673c-0.58,0.193 -1.498,0.425 -2.755,0.692c-1.257,0.27 -2.079,0.532 -2.466,0.79c-0.591,0.419 -0.886,0.95 -0.886,1.595c0,0.635 0.235,1.183 0.709,1.645c0.473,0.462 1.073,0.692 1.805,0.692c0.815,0 1.595,-0.269 2.337,-0.806c0.547,-0.408 0.907,-0.907 1.079,-1.498c0.118,-0.387 0.177,-1.123 0.177,-2.208l0,-0.902l0,0z" fill="#EE3F58"/>
   <path id="svg_32" d="m375.266,36.478l-3.108,0c-1.644,-2.482 -2.896,-5.061 -3.755,-7.734c-0.859,-2.676 -1.289,-5.264 -1.289,-7.768c0,-3.104 0.531,-6.042 1.596,-8.813c0.924,-2.406 2.096,-4.624 3.514,-6.655l3.094,0c-1.473,3.256 -2.484,6.024 -3.037,8.307c-0.555,2.283 -0.83,4.703 -0.83,7.26c0,1.762 0.164,3.566 0.49,5.414c0.328,1.848 0.776,3.604 1.347,5.269c0.372,1.094 1.032,2.667 1.978,4.72z" fill="#EE3F58"/>
   <path id="svg_33" d="m392.91,29.532l0,-9.861l-0.967,0c-1.504,0 -2.564,0.226 -3.184,0.677c-0.617,0.451 -1.673,1.8 -3.166,4.044l-3.447,5.141l-5.705,0l2.886,-4.608c1.138,-1.826 2.046,-3.107 2.723,-3.843s1.525,-1.395 2.546,-1.975c-2.201,-0.343 -3.791,-1.108 -4.77,-2.296c-0.979,-1.187 -1.467,-2.607 -1.467,-4.262c0,-1.439 0.363,-2.715 1.088,-3.827c0.726,-1.111 1.682,-1.858 2.867,-2.239c1.188,-0.382 2.963,-0.572 5.326,-0.572l10.039,0l0,23.622l-4.769,-0.001l0,0zm0,-19.626l-3.723,0c-1.892,0 -3.135,0.043 -3.729,0.129c-0.597,0.086 -1.108,0.376 -1.539,0.87c-0.43,0.494 -0.646,1.139 -0.646,1.934c0,0.827 0.207,1.485 0.621,1.974c0.414,0.489 0.939,0.793 1.578,0.911c0.641,0.118 1.941,0.177 3.908,0.177l3.528,0l0.002,-5.995l0,0z" fill="#EE3F58"/>
   <path id="svg_34" d="m402.288,12.42l4.512,0l0,6.993c0.752,-0.086 1.283,-0.316 1.597,-0.693c0.311,-0.375 0.687,-1.197 1.127,-2.465c0.58,-1.687 1.213,-2.766 1.901,-3.238c0.687,-0.473 1.589,-0.709 2.707,-0.709c0.343,0 0.938,0.026 1.788,0.08l0.018,2.997c-1.193,0 -1.957,0.112 -2.289,0.339c-0.334,0.236 -0.692,0.939 -1.08,2.11c-0.525,1.579 -1.283,2.552 -2.271,2.917c1.43,0.397 2.639,1.638 3.626,3.722c0.054,0.107 0.112,0.221 0.177,0.339l2.53,4.721l-4.866,0l-2.256,-4.947c-0.462,-0.998 -0.861,-1.641 -1.199,-1.925c-0.34,-0.285 -0.842,-0.427 -1.508,-0.427l0,7.299l-4.512,0l-0.002,-17.113l0,0z" fill="#EE3F58"/>
   <path id="svg_35" d="m416.839,12.42l4.817,0l4.094,12.149l3.996,-12.149l4.688,0l-6.042,16.468l-1.08,2.98c-0.396,1 -0.775,1.762 -1.136,2.289c-0.359,0.525 -0.772,0.953 -1.241,1.28c-0.467,0.328 -1.042,0.583 -1.724,0.766c-0.683,0.183 -1.453,0.274 -2.313,0.274c-0.871,0 -1.725,-0.092 -2.563,-0.274l-0.402,-3.545c0.709,0.14 1.348,0.21 1.916,0.21c1.053,0 1.832,-0.31 2.337,-0.927c0.506,-0.618 0.893,-1.405 1.16,-2.36l-6.507,-17.161z" fill="#EE3F58"/>
   <path id="svg_36" d="m435.707,12.42l15.485,0l0,3.657l-5.479,0l0,13.455l-4.528,0l0,-13.455l-5.479,0l0.001,-3.657l0,0z" fill="#EE3F58"/>
   <path id="svg_37" d="m453.787,12.42l4.351,0l0,10.747l6.961,-10.747l4.447,0l0,17.112l-4.351,0l0,-10.941l-7.059,10.941l-4.351,0l0.002,-17.112l0,0z" fill="#EE3F58"/>
   <path id="svg_38" d="m488.85,12.42l0,17.112l-4.494,0l0,-7.105l-0.42,0c-0.978,0 -1.693,0.126 -2.15,0.378c-0.456,0.253 -0.964,0.787 -1.522,1.604l-0.272,0.339l-2.981,4.785l-5.269,0l3.237,-4.963c0.925,-1.418 1.763,-2.234 2.515,-2.449c-1.269,-0.075 -2.296,-0.556 -3.086,-1.442c-0.789,-0.886 -1.185,-2.017 -1.185,-3.392c0,-1.106 0.261,-2.052 0.781,-2.836c0.521,-0.784 1.214,-1.318 2.078,-1.604c0.865,-0.284 2.151,-0.427 3.859,-0.427l8.909,0zm-4.496,2.917l-3.239,0c-1.191,0 -2.029,0.169 -2.515,0.507c-0.481,0.339 -0.725,0.9 -0.725,1.685c0,0.785 0.273,1.348 0.822,1.691c0.547,0.344 1.443,0.516 2.689,0.516l2.965,0l0,-4.399l0.003,0z" fill="#EE3F58"/>
   <path id="svg_39" d="m492.186,36.478c0.893,-1.913 1.521,-3.379 1.887,-4.399c0.364,-1.02 0.703,-2.197 1.015,-3.528c0.313,-1.332 0.543,-2.598 0.693,-3.795c0.149,-1.198 0.226,-2.426 0.226,-3.682c0,-2.557 -0.273,-4.977 -0.821,-7.26c-0.549,-2.282 -1.559,-5.051 -3.028,-8.307l3.077,0c1.622,2.311 2.882,4.76 3.777,7.348c0.897,2.59 1.347,5.216 1.347,7.88c0,2.245 -0.354,4.651 -1.063,7.219c-0.806,2.879 -2.133,5.72 -3.979,8.524l-3.131,0z" fill="#EE3F58"/>
  </g>
  <g id="svg_40">
   <g id="svg_41">
    <path id="svg_42" d="m60.452,75.611c-0.577,-2.245 -1.45,-4.148 -1.729,-6.732c-0.12,-1.054 -0.397,-1.629 -0.834,-1.728c-1.668,-1.152 -2.621,-2.463 -2.86,-3.933c-0.138,-0.953 -0.674,-1.509 -1.608,-1.667c-0.377,-0.021 -0.635,0.019 -1.013,0c-1.112,-0.954 -2.403,-1.848 -3.456,-2.92c-1.649,-1.298 -4.767,-1.834 -7.746,-1.436c-1.565,0.288 -3.118,0.52 -4.634,0.608c0.355,-2.59 0.746,-5.045 1.178,-7.341c2.961,0.104 5.422,0.829 7.746,1.728c0.198,0.057 0.336,-0.536 0.239,-0.715c-0.815,-0.477 -1.789,-0.874 -2.92,-1.191c0.099,-0.577 0.198,-1.152 0.298,-1.728c1.073,0.278 2.145,0.556 3.218,0.834c0.217,0.047 0.375,-0.496 0.298,-0.655c-1.053,-0.458 -2.106,-0.913 -3.158,-1.371c0.113,-0.595 0.143,-1.191 0.596,-1.787c1.211,0.337 2.423,0.674 3.635,1.012c0.247,-0.013 0.335,-0.694 0.12,-0.834c-2.756,-1.058 -5.626,-2 -8.7,-2.741c0.14,-0.993 0.278,-1.986 0.417,-2.979c-0.277,-0.019 -0.555,-0.039 -0.834,-0.059c-0.917,4.589 -1.726,9.33 -2.462,14.171c-0.546,0.053 -1.12,0.022 -1.708,-0.051c0.336,-1.537 0.019,-2.044 -0.596,-2.085c-0.942,-0.11 -1.193,0.63 -1.251,1.609c-1.291,-0.014 -2.606,0.355 -2.647,0.979c-0.085,0.611 0.271,1.042 0.74,0.808c0.341,-0.409 0.757,-0.868 1.303,-0.663c-0.264,1.379 -0.374,2.579 -0.23,3.345c-1.076,-0.018 -1.39,-0.699 -1.207,-1.538c0.135,-0.618 0.187,-0.427 -0.425,-0.649c-0.889,-0.325 -0.99,-0.756 -0.632,-1.507c0.024,-0.663 -0.223,-0.419 -0.418,-0.357c-0.459,0.173 -0.816,0.073 -1.072,-0.298c-0.357,-0.638 -0.715,-0.937 -1.072,-0.894c-0.556,0.021 -0.781,0.193 -1.669,0.111c-0.349,-0.023 -0.528,-0.233 -0.536,-0.527c0.044,-0.498 -0.557,-0.805 -1.014,-1.072c-0.386,-0.05 -0.729,0.004 -0.775,0.774c-0.146,0.536 -0.508,0.979 -1.131,1.311c-0.35,0.094 -0.46,0.306 -0.537,0.538c-0.482,0.479 -0.521,0.856 -0.119,1.131c0.239,0.123 0.476,0.209 0.715,0.476c0.357,0.735 0.544,1.513 0.357,2.384c-0.317,0.524 -0.158,0.981 0.477,1.371c0.456,0.057 0.674,-0.263 0.655,-0.954c-0.052,-0.456 0.068,-0.913 0.357,-1.37c0.625,-0.058 1.272,-0.161 1.549,0.477c0.11,0.854 -0.327,1.708 -1.014,2.563c-1.86,2.084 -1.623,4.793 -0.119,6.494c-0.874,0.794 -1.748,1.589 -2.621,2.383c-0.933,1.108 -1.163,2.294 -1.073,3.515c0.12,1.688 0.239,3.377 0.357,5.065c0.178,0.908 1.498,0.572 1.49,-0.537c-0.298,-1.758 -0.539,-3.551 -0.383,-5.422c0.208,-1.47 1.563,-2.873 3.66,-4.23c0.298,-0.15 0.596,-0.13 0.894,0.061c-0.297,0.576 -0.596,1.152 -0.894,1.728c-0.293,0.536 -0.287,1.072 -0.238,1.609c0.377,2.184 0.754,4.369 1.132,6.553c0.141,1.086 1.684,1.633 1.311,0.239c-0.297,-1.977 -0.533,-3.983 -1.072,-5.839c-0.234,-0.5 -0.396,-0.985 -0.06,-1.371c0.544,-0.987 1.387,-1.592 2.103,-2.367c0.258,-0.357 0.7,-0.602 1.413,-0.731c1.607,-0.409 3.114,-0.846 4.364,-1.353c-0.44,3.406 -0.858,6.841 -1.267,10.291c0.033,0.479 1.044,0.922 1.372,0c0.282,-3.726 0.597,-7.332 0.956,-10.772c0.375,-0.192 0.715,-0.395 1.01,-0.609c1.667,-0.712 3.336,-1.166 5.004,-1.311c0.394,1.27 1.173,1.855 3.813,3.635c0.666,0.566 1.189,1.175 0.715,2.085c-0.485,0.771 -0.97,1.358 -1.796,2.016c-0.771,0.627 -1.416,1.553 -1.932,2.307c-0.537,0.855 -1.243,1.666 -1.396,2.648c-0.116,0.894 0.239,2.425 1.312,0.773c1.069,-2.588 2.555,-4.949 4.647,-6.969c0.709,-0.833 0.908,-1.606 0.596,-2.324c-0.116,-0.593 -0.176,-1.13 -0.179,-1.609c0.227,-0.432 0.681,-0.778 1.021,-0.868c0.664,1.104 1.583,1.953 2.417,2.886c0.732,0.525 0.704,1.121 0.555,2.213c-0.054,2.015 -0.577,3.874 -1.312,5.661c-0.638,1.587 -0.54,2.322 0.298,2.205c0.446,0.027 0.85,-0.074 0.954,-1.073c0.135,-0.854 0.286,-1.708 0.536,-2.562c0.317,-1.053 0.635,-2.106 0.953,-3.157c0.235,-1.429 0.439,-2.848 -0.357,-3.933c-0.377,-0.556 -0.754,-1.112 -1.131,-1.668c0.999,-0.691 1.392,-1.72 1.37,-2.979c1.074,-0.343 1.312,0.852 1.429,2.264c0.277,0.893 1.033,1.708 2.265,2.442c1.112,0.894 1.509,2.105 1.192,3.635c0.005,0.854 0.209,1.708 0.441,2.562c0.358,1.093 0.63,2.186 0.988,3.276c0.513,1.212 1.695,0.731 1.371,-1.31zm-24.756,-17.774c-0.593,0.011 -1.18,-0.003 -1.759,-0.047c-0.347,-0.993 -0.17,-1.849 0.775,-2.501c0.428,-0.2 0.904,-0.211 1.387,-0.197c-0.138,0.911 -0.272,1.827 -0.403,2.745z" fill="#E20613"/>
    <path id="svg_43" d="m40.151,37.435c-14.669,0 -26.565,11.896 -26.565,26.564c0,14.67 11.897,26.565 26.565,26.565s26.564,-11.895 26.564,-26.565c0,-14.668 -11.895,-26.564 -26.564,-26.564zm0,52.63c-14.393,0 -26.066,-11.672 -26.066,-26.066c0,-14.393 11.673,-26.064 26.066,-26.064s26.066,11.671 26.066,26.064c0,14.394 -11.673,26.066 -26.066,26.066z" fill="#E20613"/>
    <path id="svg_44" d="m40.151,39.255c-13.663,0 -24.745,11.082 -24.745,24.744c0,13.664 11.082,24.745 24.745,24.745c13.664,0 24.745,-11.081 24.745,-24.745c0,-13.662 -11.081,-24.744 -24.745,-24.744zm0,49.205c-13.507,0 -24.46,-10.954 -24.46,-24.461c0,-13.506 10.953,-24.46 24.46,-24.46c13.507,0 24.46,10.954 24.46,24.46c0,13.507 -10.953,24.461 -24.46,24.461z" fill="#E20613"/>
   </g>
   <path id="svg_45" d="m40.151,29c-19.327,0 -35,15.673 -35,35c0,19.328 15.673,35.001 35,35.001c19.328,0 35,-15.673 35,-35.001c0,-19.327 -15.672,-35 -35,-35zm0,64.556c-16.32,0 -29.556,-13.236 -29.556,-29.557c0,-16.32 13.236,-29.555 29.556,-29.555c16.32,0 29.556,13.235 29.556,29.555c0,16.321 -13.236,29.557 -29.556,29.557z" fill="#1865A9"/>
   <path id="svg_46" d="m9.661,55.065c-0.146,-0.047 -0.278,-0.117 -0.396,-0.206c-0.117,-0.089 -0.206,-0.192 -0.267,-0.309c-0.038,-0.072 -0.069,-0.147 -0.095,-0.226c-0.025,-0.08 -0.042,-0.163 -0.049,-0.251c-0.008,-0.088 -0.006,-0.181 0.004,-0.277c0.013,-0.097 0.036,-0.203 0.072,-0.314l0.135,-0.415l-1.031,-0.334l0.258,-0.792l3.148,1.024l-0.397,1.221c-0.06,0.182 -0.127,0.333 -0.203,0.455c-0.076,0.122 -0.167,0.224 -0.273,0.307c-0.118,0.093 -0.253,0.15 -0.405,0.171c-0.152,0.024 -0.319,0.005 -0.501,-0.054l0,0zm40.789,39.088c0.266,0 0.481,0.216 0.481,0.482c0,0.266 -0.215,0.481 -0.481,0.481c-0.266,0 -0.481,-0.216 -0.481,-0.481c0,-0.265 0.216,-0.482 0.481,-0.482l0,0zm-40.544,-39.906c0.089,0.029 0.172,0.032 0.25,0.011c0.078,-0.021 0.138,-0.058 0.182,-0.109c0.057,-0.064 0.098,-0.129 0.125,-0.196c0.027,-0.066 0.06,-0.159 0.098,-0.275l0.036,-0.112l-0.943,-0.307l-0.019,0.054c-0.023,0.076 -0.045,0.146 -0.066,0.213c-0.021,0.067 -0.033,0.126 -0.042,0.178c-0.007,0.045 -0.007,0.095 -0.001,0.148c0.004,0.053 0.016,0.098 0.033,0.13c0.034,0.071 0.077,0.124 0.126,0.162c0.053,0.038 0.126,0.072 0.221,0.103l0,0zm-2.507,0.527l3.226,0.744l-0.503,2.182l-0.616,-0.142l0.317,-1.375l-0.565,-0.13l-0.293,1.267l-0.615,-0.143l0.293,-1.268l-0.814,-0.188l-0.319,1.376l-0.615,-0.142l0.504,-2.181l0,0zm-0.893,4.142c0.069,-0.49 0.272,-0.861 0.61,-1.109c0.338,-0.248 0.776,-0.333 1.315,-0.257c0.519,0.072 0.913,0.276 1.181,0.61c0.268,0.333 0.368,0.746 0.299,1.237c-0.019,0.13 -0.042,0.247 -0.072,0.35c-0.03,0.102 -0.064,0.199 -0.104,0.291c-0.033,0.071 -0.074,0.149 -0.124,0.231c-0.05,0.082 -0.093,0.149 -0.129,0.2l-0.783,-0.11l0.013,-0.083c0.041,-0.035 0.09,-0.079 0.147,-0.133c0.059,-0.053 0.116,-0.115 0.174,-0.184c0.058,-0.071 0.11,-0.149 0.155,-0.236c0.046,-0.087 0.076,-0.181 0.09,-0.28c0.017,-0.12 0.013,-0.231 -0.01,-0.334c-0.023,-0.105 -0.075,-0.209 -0.155,-0.312c-0.072,-0.093 -0.176,-0.177 -0.311,-0.249c-0.136,-0.072 -0.299,-0.122 -0.493,-0.148c-0.205,-0.03 -0.38,-0.027 -0.527,0.008c-0.146,0.036 -0.268,0.09 -0.365,0.167c-0.094,0.073 -0.167,0.16 -0.219,0.26c-0.051,0.1 -0.084,0.201 -0.098,0.306c-0.016,0.108 -0.013,0.214 0.009,0.317c0.023,0.104 0.052,0.192 0.085,0.266c0.036,0.08 0.073,0.152 0.112,0.214c0.04,0.062 0.074,0.116 0.105,0.163l-0.01,0.075l-0.771,-0.108c-0.019,-0.063 -0.041,-0.139 -0.066,-0.222c-0.025,-0.085 -0.044,-0.17 -0.057,-0.258c-0.017,-0.107 -0.027,-0.206 -0.031,-0.298c0,-0.093 0.008,-0.217 0.03,-0.374l0,0zm-0.312,4.398l0.03,-0.832l2.677,0.093l0.04,-1.13l-2.678,-0.094l0.028,-0.831l3.309,0.115l-0.098,2.793l-3.308,-0.114l0,0zm3.409,3.284l-2.686,-1.011c-0.155,-0.061 -0.279,-0.128 -0.371,-0.207c-0.093,-0.077 -0.163,-0.16 -0.212,-0.247c-0.048,-0.087 -0.083,-0.176 -0.101,-0.264c-0.019,-0.088 -0.03,-0.181 -0.034,-0.28c-0.004,-0.101 -0.005,-0.22 -0.005,-0.356c0,-0.136 0.001,-0.227 0.003,-0.272l0.703,-0.025l0.001,0.051c-0.001,0.014 -0.005,0.034 -0.009,0.063c-0.003,0.029 -0.005,0.063 -0.009,0.107c-0.002,0.036 -0.004,0.075 -0.005,0.115c-0.001,0.042 -0.001,0.08 0,0.115c0.003,0.099 0.019,0.192 0.045,0.279c0.028,0.087 0.072,0.145 0.133,0.172l2.439,-1.311l0.032,0.897l-1.528,0.764l1.574,0.545l0.03,0.865l0,0zm-1.866,2.915c-0.159,0.023 -0.31,0.013 -0.453,-0.029c-0.144,-0.043 -0.264,-0.11 -0.364,-0.204c-0.12,-0.113 -0.21,-0.238 -0.273,-0.379c-0.062,-0.141 -0.108,-0.315 -0.137,-0.525l-0.19,-1.348l3.279,-0.461l0.334,2.383l-0.625,0.088l-0.22,-1.564l-0.606,0.086l0.077,0.542c0.027,0.197 0.038,0.375 0.031,0.535c-0.006,0.159 -0.05,0.308 -0.13,0.444c-0.072,0.126 -0.17,0.223 -0.295,0.292c-0.126,0.071 -0.269,0.118 -0.428,0.14l0,0zm-0.142,-0.846c0.053,-0.008 0.104,-0.021 0.152,-0.04c0.045,-0.019 0.088,-0.05 0.123,-0.096c0.034,-0.045 0.058,-0.104 0.071,-0.177c0.014,-0.071 0.012,-0.169 -0.005,-0.291l-0.058,-0.419l-0.833,0.118l0.059,0.418c0.024,0.168 0.079,0.297 0.164,0.384c0.084,0.087 0.194,0.121 0.327,0.103l0,0zm-0.212,4.23l-0.188,-0.811l2.61,-0.603l-0.186,-0.813c-0.127,0.023 -0.247,0.046 -0.357,0.065c-0.109,0.02 -0.215,0.039 -0.313,0.056c-0.285,0.049 -0.535,0.079 -0.747,0.09c-0.212,0.011 -0.389,0.008 -0.53,-0.007c-0.151,-0.02 -0.271,-0.045 -0.363,-0.079c-0.092,-0.034 -0.166,-0.068 -0.223,-0.104c-0.086,-0.052 -0.16,-0.128 -0.224,-0.222c-0.064,-0.095 -0.107,-0.193 -0.13,-0.294c-0.016,-0.067 -0.03,-0.144 -0.042,-0.225c-0.013,-0.082 -0.022,-0.135 -0.023,-0.157l0.713,-0.165l0.006,0.03c0.002,0.016 0.004,0.03 0.006,0.044c0.002,0.014 0.005,0.032 0.01,0.053c0.008,0.036 0.025,0.081 0.049,0.134c0.025,0.054 0.054,0.092 0.088,0.115c0.122,0.082 0.291,0.117 0.505,0.108c0.214,-0.01 0.519,-0.049 0.912,-0.118c0.179,-0.033 0.34,-0.063 0.482,-0.094c0.142,-0.031 0.35,-0.072 0.622,-0.126l0.549,2.379l-3.226,0.744l0,0zm1.127,3.377l-0.266,-0.773l2.063,-0.71l-2.477,-0.492l-0.251,-0.728l3.13,-1.078l0.268,0.773l-1.866,0.643l2.248,0.47l0.282,0.818l-3.131,1.077l0,0zm1.499,3.254l-0.42,-0.899l0.837,-1.368l-0.088,-0.19l-1.211,0.564l-0.352,-0.752l3,-1.399l0.351,0.753l-1.222,0.57c0.06,0.115 0.127,0.191 0.201,0.228c0.075,0.035 0.211,0.057 0.408,0.063c0.058,0.002 0.126,0.003 0.205,0.003c0.079,0 0.147,0 0.207,0c0.222,0.004 0.4,0.05 0.537,0.14c0.136,0.09 0.251,0.237 0.347,0.442c0.032,0.067 0.057,0.124 0.076,0.169c0.019,0.045 0.033,0.08 0.044,0.104l-0.643,0.3l-0.081,-0.173c-0.039,-0.086 -0.102,-0.148 -0.185,-0.188c-0.083,-0.039 -0.219,-0.055 -0.409,-0.045c-0.15,0.006 -0.268,0.001 -0.356,-0.016c-0.086,-0.016 -0.151,-0.039 -0.192,-0.068l-1.054,1.762l0,0zm-0.018,-0.054l3.426,-0.686l0.453,0.785l-2.308,2.624l-0.427,-0.741l0.48,-0.518l-0.519,-0.9l-0.689,0.159l-0.416,-0.723l0,0zm2.055,1.007l0.775,-0.838l-1.114,0.252l0.339,0.586l0,0zm2.996,6.302c-0.326,-0.374 -0.472,-0.77 -0.437,-1.188c0.035,-0.417 0.258,-0.804 0.669,-1.161c0.396,-0.344 0.807,-0.508 1.235,-0.491c0.427,0.017 0.804,0.211 1.13,0.586c0.086,0.1 0.159,0.194 0.217,0.284c0.058,0.089 0.108,0.179 0.151,0.269c0.032,0.072 0.064,0.154 0.094,0.247c0.028,0.092 0.051,0.168 0.066,0.228l-0.596,0.518l-0.056,-0.063c0.002,-0.054 0,-0.121 -0.003,-0.198c-0.001,-0.079 -0.01,-0.163 -0.025,-0.251c-0.014,-0.089 -0.04,-0.181 -0.075,-0.272c-0.036,-0.092 -0.086,-0.176 -0.152,-0.251c-0.079,-0.091 -0.165,-0.162 -0.259,-0.212c-0.094,-0.051 -0.207,-0.08 -0.336,-0.088c-0.118,-0.006 -0.25,0.017 -0.392,0.071c-0.144,0.056 -0.289,0.146 -0.436,0.274c-0.156,0.136 -0.269,0.27 -0.339,0.404c-0.068,0.133 -0.107,0.261 -0.113,0.385c-0.007,0.12 0.01,0.231 0.052,0.336c0.042,0.104 0.097,0.196 0.167,0.275c0.071,0.082 0.154,0.149 0.247,0.201c0.094,0.05 0.178,0.087 0.255,0.11c0.085,0.025 0.164,0.044 0.236,0.056c0.072,0.011 0.136,0.021 0.192,0.027l0.049,0.057l-0.587,0.511c-0.062,-0.027 -0.132,-0.06 -0.212,-0.096c-0.079,-0.037 -0.157,-0.079 -0.231,-0.126c-0.091,-0.058 -0.172,-0.115 -0.245,-0.173c-0.075,-0.06 -0.162,-0.148 -0.266,-0.269l0,0zm0.916,0.89l3.075,-1.659l0.663,0.619l-1.439,3.184l-0.626,-0.583l0.309,-0.637l-0.76,-0.708l-0.612,0.353l-0.61,-0.569l0,0zm2.258,0.362l0.497,-1.028l-0.991,0.567l0.494,0.461l0,0zm2.48,3.678l-0.759,-0.593l0.147,-1.223l-1.161,0.431l-0.725,-0.566l1.874,-0.652l0.198,-1.931l0.757,0.592l-0.146,1.156l1.099,-0.411l0.727,0.567l-1.81,0.63l-0.201,2l0,0zm-0.009,-0.03l2.704,-2.214l0.77,0.48l-0.806,3.4l-0.726,-0.453l0.182,-0.685l-0.881,-0.55l-0.535,0.463l-0.708,-0.441l0,0zm2.287,-0.077l0.292,-1.103l-0.866,0.745l0.574,0.358l0,0zm4.089,4.559l-0.745,-0.332c-0.055,-0.188 -0.096,-0.375 -0.125,-0.563c-0.029,-0.187 -0.04,-0.378 -0.034,-0.575c0.005,-0.185 0.033,-0.379 0.082,-0.584c0.048,-0.206 0.118,-0.411 0.209,-0.615c0.099,-0.223 0.209,-0.417 0.327,-0.582c0.118,-0.166 0.241,-0.311 0.366,-0.433c0.139,-0.135 0.287,-0.254 0.446,-0.358c0.159,-0.104 0.329,-0.2 0.509,-0.288l0.746,0.332l-0.027,0.058c-0.153,0.05 -0.308,0.116 -0.463,0.197c-0.155,0.082 -0.313,0.187 -0.473,0.316c-0.153,0.125 -0.298,0.274 -0.438,0.449c-0.138,0.174 -0.256,0.372 -0.355,0.594c-0.104,0.231 -0.171,0.452 -0.206,0.661c-0.035,0.211 -0.048,0.419 -0.038,0.624c0.009,0.196 0.036,0.382 0.08,0.558c0.044,0.177 0.1,0.336 0.165,0.481l-0.026,0.06l0,0zm3.31,0.162l-0.787,-0.256l0.375,-1.155l-0.299,-0.097l-1.167,0.899l-0.939,-0.307l1.364,-1c-0.167,-0.146 -0.278,-0.311 -0.334,-0.497c-0.055,-0.184 -0.044,-0.396 0.033,-0.635c0.052,-0.16 0.133,-0.289 0.244,-0.385c0.11,-0.097 0.232,-0.165 0.368,-0.206c0.116,-0.036 0.25,-0.046 0.396,-0.034c0.149,0.013 0.311,0.049 0.489,0.106l1.282,0.417l-1.025,3.15l0,0zm-0.227,-1.977l0.275,-0.849l-0.253,-0.082c-0.124,-0.039 -0.218,-0.067 -0.287,-0.081c-0.07,-0.014 -0.142,-0.007 -0.219,0.02c-0.06,0.019 -0.111,0.053 -0.155,0.102s-0.077,0.107 -0.099,0.178c-0.023,0.07 -0.031,0.14 -0.022,0.205c0.008,0.066 0.03,0.125 0.066,0.177c0.039,0.06 0.094,0.106 0.164,0.14c0.069,0.034 0.163,0.069 0.282,0.107l0.248,0.083l0,0zm3.721,2.846l-0.97,-0.208l-0.589,-1.491l-0.206,-0.042l-0.277,1.308l-0.813,-0.174l0.688,-3.238l0.814,0.173l-0.281,1.32c0.128,0.021 0.229,0.013 0.303,-0.024c0.074,-0.039 0.171,-0.133 0.295,-0.287c0.037,-0.045 0.079,-0.101 0.125,-0.164c0.047,-0.061 0.09,-0.116 0.125,-0.164c0.136,-0.176 0.281,-0.291 0.435,-0.346c0.152,-0.054 0.341,-0.058 0.563,-0.011c0.072,0.016 0.132,0.028 0.179,0.042c0.047,0.013 0.084,0.021 0.11,0.028l-0.147,0.693l-0.187,-0.04c-0.093,-0.02 -0.179,-0.008 -0.261,0.035c-0.081,0.042 -0.175,0.142 -0.282,0.298c-0.085,0.124 -0.16,0.216 -0.227,0.276c-0.064,0.06 -0.121,0.097 -0.17,0.112l0.773,1.904l0,0zm3.41,-2.861l-1.419,2.493c-0.083,0.146 -0.171,0.257 -0.262,0.335c-0.09,0.078 -0.183,0.134 -0.277,0.17c-0.094,0.035 -0.186,0.054 -0.276,0.058c-0.089,0.005 -0.184,0.002 -0.281,-0.011c-0.102,-0.013 -0.218,-0.03 -0.353,-0.05c-0.134,-0.021 -0.224,-0.036 -0.27,-0.045l0.086,-0.698l0.05,0.006c0.013,0.005 0.033,0.011 0.061,0.019c0.028,0.008 0.062,0.016 0.104,0.025c0.035,0.008 0.074,0.016 0.113,0.023c0.041,0.008 0.079,0.014 0.113,0.018c0.098,0.013 0.192,0.012 0.283,-0.001c0.091,-0.014 0.154,-0.048 0.191,-0.104l-0.914,-2.614l0.892,0.11l0.515,1.628l0.786,-1.469l0.858,0.107l0,0zm0.977,3.383l0.046,-2.678l-0.978,-0.017l0.011,-0.632l2.788,0.049l-0.011,0.632l-0.978,-0.018l-0.047,2.68l-0.831,-0.016l0,0zm5.01,-0.027l-0.817,0.014l-0.039,-2.181l-1.233,2.203l-0.77,0.014l-0.058,-3.311l0.819,-0.014l0.035,1.972l1.141,-1.993l0.866,-0.015l0.056,3.311l0,0zm3.229,-0.437l-0.821,0.102l-0.147,-1.206l-0.313,0.039l-0.679,1.307l-0.98,0.12l0.814,-1.482c-0.213,-0.062 -0.384,-0.164 -0.512,-0.309c-0.129,-0.143 -0.209,-0.34 -0.239,-0.589c-0.021,-0.167 -0.001,-0.318 0.058,-0.453c0.059,-0.134 0.141,-0.248 0.246,-0.341c0.091,-0.081 0.208,-0.147 0.346,-0.198c0.14,-0.05 0.302,-0.088 0.487,-0.111l1.338,-0.164l0.402,3.285l0,0zm-1.043,-1.695l-0.108,-0.885l-0.265,0.033c-0.128,0.016 -0.226,0.032 -0.293,0.049c-0.069,0.016 -0.132,0.053 -0.191,0.109c-0.045,0.043 -0.078,0.097 -0.097,0.159c-0.019,0.063 -0.025,0.129 -0.016,0.202c0.009,0.076 0.031,0.14 0.066,0.197c0.036,0.056 0.081,0.101 0.135,0.132c0.061,0.037 0.131,0.057 0.207,0.058c0.077,0.001 0.178,-0.006 0.302,-0.021l0.26,-0.033l0,0zm2.877,-0.073c0.047,0.22 0.072,0.435 0.076,0.645c0.006,0.21 -0.008,0.407 -0.041,0.59c-0.036,0.194 -0.086,0.379 -0.153,0.555c-0.066,0.176 -0.146,0.351 -0.239,0.523l-0.797,0.17l-0.014,-0.063c0.094,-0.128 0.182,-0.273 0.262,-0.436c0.081,-0.163 0.145,-0.34 0.194,-0.53c0.051,-0.199 0.083,-0.405 0.092,-0.618c0.01,-0.212 -0.011,-0.442 -0.063,-0.691c-0.05,-0.237 -0.126,-0.456 -0.224,-0.654c-0.099,-0.2 -0.21,-0.375 -0.334,-0.53c-0.13,-0.16 -0.263,-0.295 -0.396,-0.408c-0.136,-0.111 -0.273,-0.207 -0.414,-0.289l-0.013,-0.063l0.797,-0.17c0.159,0.124 0.305,0.253 0.439,0.388c0.133,0.135 0.254,0.281 0.36,0.441c0.099,0.148 0.189,0.314 0.269,0.501c0.083,0.188 0.149,0.4 0.199,0.639l0,0zm7.176,-1.309c-0.441,0.225 -0.862,0.27 -1.258,0.137c-0.397,-0.135 -0.718,-0.445 -0.965,-0.931c-0.239,-0.467 -0.299,-0.907 -0.179,-1.317c0.119,-0.412 0.4,-0.729 0.842,-0.955c0.119,-0.061 0.226,-0.107 0.328,-0.142c0.101,-0.035 0.2,-0.062 0.298,-0.082c0.077,-0.014 0.165,-0.025 0.261,-0.031c0.098,-0.006 0.176,-0.009 0.238,-0.008l0.357,0.703l-0.075,0.038c-0.052,-0.013 -0.116,-0.028 -0.192,-0.044c-0.077,-0.018 -0.161,-0.029 -0.25,-0.036c-0.091,-0.008 -0.186,-0.005 -0.283,0.008c-0.098,0.013 -0.192,0.041 -0.282,0.086c-0.106,0.055 -0.196,0.122 -0.269,0.201c-0.071,0.079 -0.126,0.181 -0.165,0.305c-0.036,0.112 -0.044,0.245 -0.026,0.397c0.019,0.153 0.072,0.316 0.161,0.49c0.094,0.184 0.196,0.326 0.309,0.425c0.113,0.1 0.228,0.168 0.347,0.204c0.115,0.035 0.227,0.045 0.338,0.03c0.112,-0.014 0.214,-0.046 0.308,-0.094c0.097,-0.05 0.182,-0.113 0.255,-0.191c0.071,-0.078 0.128,-0.152 0.169,-0.222c0.045,-0.075 0.082,-0.147 0.11,-0.214c0.028,-0.068 0.054,-0.127 0.074,-0.179l0.068,-0.035l0.352,0.694c-0.041,0.053 -0.089,0.113 -0.143,0.182c-0.056,0.069 -0.115,0.133 -0.179,0.195c-0.078,0.074 -0.154,0.139 -0.227,0.196c-0.073,0.055 -0.179,0.118 -0.322,0.19l0,0zm1.104,-0.613l-0.806,-3.4l0.769,-0.48l2.703,2.214l-0.727,0.453l-0.534,-0.462l-0.881,0.55l0.183,0.684l-0.707,0.441l0,0zm0.934,-2.088l-0.864,-0.746l0.291,1.104l0.573,-0.358l0,0zm4.216,-1.448l-0.759,0.592l-1.152,-0.438l0.138,1.23l-0.725,0.567l-0.179,-1.976l-1.825,-0.659l0.757,-0.592l1.085,0.422l-0.133,-1.166l0.726,-0.568l0.174,1.909l1.893,0.679l0,0zm-0.053,-0.014l-1.271,-3.255l0.694,-0.583l2.986,1.817l-0.656,0.55l-0.594,-0.384l-0.796,0.668l0.275,0.651l-0.638,0.536l0,0zm0.634,-2.198l-0.96,-0.619l0.442,1.053l0.518,-0.434l0,0zm3.58,-5.49c0.12,0.098 0.218,0.209 0.295,0.335c0.077,0.125 0.124,0.253 0.139,0.384c0.009,0.079 0.012,0.162 0.007,0.244c-0.004,0.083 -0.018,0.168 -0.044,0.251c-0.025,0.085 -0.06,0.171 -0.104,0.258c-0.045,0.086 -0.105,0.176 -0.18,0.267l-0.274,0.339l0.842,0.682l-0.523,0.646l-2.573,-2.084l0.809,-0.998c0.12,-0.148 0.238,-0.266 0.353,-0.352c0.114,-0.086 0.235,-0.148 0.364,-0.188c0.143,-0.045 0.29,-0.05 0.44,-0.015c0.151,0.034 0.301,0.111 0.449,0.231l0,0zm-0.522,0.676c-0.072,-0.059 -0.149,-0.093 -0.229,-0.101c-0.081,-0.008 -0.151,0.004 -0.209,0.038c-0.076,0.039 -0.139,0.085 -0.189,0.137c-0.048,0.053 -0.111,0.127 -0.188,0.223l-0.075,0.091l0.771,0.625l0.036,-0.045c0.05,-0.061 0.096,-0.119 0.138,-0.174c0.042,-0.055 0.077,-0.105 0.103,-0.151c0.022,-0.04 0.04,-0.085 0.054,-0.138c0.016,-0.052 0.021,-0.097 0.017,-0.134c-0.008,-0.079 -0.028,-0.143 -0.061,-0.196c-0.033,-0.054 -0.089,-0.112 -0.168,-0.175l0,0zm2.55,0.387l-2.777,-1.803l1.22,-1.878l0.53,0.344l-0.769,1.184l0.486,0.315l0.708,-1.09l0.53,0.344l-0.709,1.091l0.701,0.455l0.769,-1.185l0.529,0.344l-1.218,1.879l0,0zm2.228,-3.569c-0.232,0.438 -0.55,0.717 -0.952,0.834c-0.403,0.117 -0.844,0.047 -1.325,-0.208c-0.463,-0.247 -0.763,-0.572 -0.9,-0.978c-0.138,-0.405 -0.091,-0.827 0.141,-1.265c0.063,-0.116 0.125,-0.218 0.187,-0.304c0.063,-0.085 0.129,-0.166 0.197,-0.238c0.056,-0.055 0.121,-0.115 0.196,-0.174c0.075,-0.062 0.14,-0.108 0.19,-0.145l0.697,0.371l-0.04,0.076c-0.05,0.018 -0.112,0.042 -0.183,0.074c-0.073,0.03 -0.148,0.067 -0.226,0.113c-0.079,0.047 -0.154,0.103 -0.228,0.168c-0.072,0.066 -0.132,0.145 -0.18,0.232c-0.057,0.106 -0.092,0.212 -0.105,0.319c-0.013,0.105 0,0.221 0.04,0.344c0.036,0.113 0.104,0.227 0.206,0.34c0.104,0.114 0.24,0.217 0.413,0.309c0.183,0.097 0.348,0.154 0.498,0.171c0.149,0.018 0.282,0.007 0.399,-0.031c0.115,-0.036 0.212,-0.093 0.294,-0.17c0.083,-0.075 0.149,-0.16 0.199,-0.253c0.05,-0.097 0.083,-0.198 0.099,-0.302c0.014,-0.104 0.018,-0.198 0.011,-0.279c-0.006,-0.087 -0.018,-0.167 -0.033,-0.239s-0.028,-0.135 -0.042,-0.188l0.036,-0.067l0.687,0.366c-0.005,0.066 -0.009,0.145 -0.014,0.231c-0.007,0.088 -0.017,0.174 -0.035,0.262c-0.021,0.105 -0.045,0.202 -0.074,0.291c-0.027,0.086 -0.078,0.2 -0.153,0.34l0,0zm1.839,-4.043l-0.352,0.753l-2.428,-1.132l-0.478,1.025l2.428,1.132l-0.352,0.754l-3,-1.399l1.182,-2.533l3,1.4l0,0zm-2.07,-4.332l2.145,1.908c0.125,0.112 0.215,0.22 0.272,0.325c0.058,0.105 0.094,0.208 0.109,0.307c0.014,0.099 0.015,0.193 0,0.283c-0.014,0.09 -0.037,0.179 -0.069,0.272c-0.033,0.097 -0.073,0.209 -0.122,0.335c-0.049,0.126 -0.083,0.211 -0.102,0.254l-0.665,-0.229l0.017,-0.047c0.008,-0.012 0.017,-0.031 0.031,-0.056c0.013,-0.025 0.028,-0.057 0.047,-0.096c0.014,-0.033 0.03,-0.069 0.045,-0.107c0.017,-0.038 0.031,-0.074 0.042,-0.105c0.032,-0.094 0.051,-0.187 0.058,-0.278c0.004,-0.091 -0.016,-0.16 -0.063,-0.208l-2.747,0.349l0.292,-0.849l1.7,-0.165l-1.273,-1.073l0.283,-0.82l0,0zm2.679,-2.087c0.158,0.036 0.294,0.101 0.414,0.191c0.118,0.09 0.208,0.196 0.267,0.32c0.071,0.147 0.11,0.298 0.119,0.451c0.008,0.152 -0.012,0.333 -0.06,0.54l-0.306,1.326l-3.227,-0.745l0.542,-2.344l0.615,0.142l-0.356,1.538l0.597,0.137l0.123,-0.533c0.044,-0.193 0.099,-0.364 0.162,-0.51c0.064,-0.147 0.157,-0.27 0.281,-0.369c0.112,-0.092 0.239,-0.148 0.381,-0.168c0.142,-0.02 0.291,-0.012 0.448,0.024l0,0zm-0.169,0.842c-0.053,-0.013 -0.105,-0.019 -0.156,-0.019c-0.05,0.002 -0.101,0.017 -0.149,0.046c-0.049,0.03 -0.091,0.076 -0.13,0.139c-0.039,0.062 -0.073,0.152 -0.099,0.273l-0.096,0.412l0.82,0.189l0.095,-0.412c0.039,-0.165 0.034,-0.305 -0.014,-0.417c-0.05,-0.11 -0.141,-0.181 -0.271,-0.211l0,0zm1.634,-3.894l-0.115,0.823l-2.654,-0.373l-0.116,0.828c0.127,0.023 0.246,0.045 0.356,0.067c0.109,0.021 0.214,0.041 0.313,0.061c0.284,0.056 0.526,0.118 0.73,0.183c0.202,0.066 0.365,0.132 0.492,0.196c0.134,0.072 0.236,0.14 0.31,0.204c0.074,0.064 0.13,0.123 0.17,0.177c0.061,0.08 0.104,0.176 0.129,0.287c0.026,0.111 0.031,0.219 0.017,0.322c-0.009,0.069 -0.023,0.144 -0.041,0.225c-0.017,0.082 -0.028,0.133 -0.034,0.154l-0.725,-0.101l0.004,-0.031c0.004,-0.014 0.007,-0.029 0.01,-0.042c0.004,-0.014 0.007,-0.032 0.01,-0.054c0.005,-0.038 0.006,-0.084 0.002,-0.143c-0.003,-0.059 -0.018,-0.105 -0.041,-0.139c-0.085,-0.12 -0.229,-0.213 -0.433,-0.281c-0.204,-0.069 -0.502,-0.141 -0.893,-0.217c-0.18,-0.035 -0.341,-0.063 -0.485,-0.085c-0.143,-0.022 -0.352,-0.058 -0.625,-0.105l0.34,-2.418l3.279,0.462l0,0zm0.061,-3.544l-0.029,0.818l-2.18,-0.076l2.135,1.347l-0.026,0.769l-3.308,-0.115l0.028,-0.819l1.971,0.07l-1.93,-1.245l0.03,-0.864l3.309,0.115l0,0zm-0.327,-3.557l0.086,0.988l-1.254,1l0.019,0.209l1.33,-0.116l0.073,0.828l-3.299,0.289l-0.072,-0.828l1.344,-0.119c-0.017,-0.128 -0.054,-0.222 -0.111,-0.282s-0.178,-0.126 -0.361,-0.2c-0.055,-0.021 -0.119,-0.046 -0.192,-0.072c-0.073,-0.027 -0.137,-0.052 -0.194,-0.072c-0.207,-0.079 -0.36,-0.183 -0.458,-0.315c-0.096,-0.129 -0.154,-0.308 -0.174,-0.534c-0.006,-0.073 -0.011,-0.134 -0.013,-0.184c-0.002,-0.049 -0.004,-0.086 -0.006,-0.113l0.706,-0.061l0.018,0.19c0.008,0.095 0.044,0.175 0.11,0.241c0.063,0.063 0.186,0.125 0.368,0.182c0.143,0.045 0.252,0.09 0.329,0.135c0.076,0.044 0.128,0.088 0.158,0.13l1.593,-1.296l0,0zm-0.031,0.075l-3.445,-0.586l-0.142,-0.896l3.095,-1.623l0.133,0.845l-0.635,0.312l0.163,1.026l0.7,0.099l0.131,0.823l0,0zm-1.558,-1.675l-1.024,0.504l1.13,0.163l-0.106,-0.667l0,0zm0.777,-2.379l-2.588,0.693l0.253,0.945l-0.61,0.164l-0.722,-2.694l0.611,-0.163l0.253,0.945l2.588,-0.693l0.215,0.803l0,0zm-0.461,-1.729l-3.493,0.08l-0.311,-0.852l2.728,-2.183l0.293,0.804l-0.564,0.427l0.355,0.976l0.706,-0.036l0.286,0.784l0,0zm-1.849,-1.349l-0.908,0.691l1.14,-0.055l-0.232,-0.636l0,0z" fill="#FFFFFF"/>
   <path id="svg_47" d="m41.691,31.064l-0.134,-0.134l-0.779,0.779l0.779,0.779l0.134,-0.134l-0.534,-0.535l-0.111,-0.11l0.111,-0.11l0.534,-0.535l0,0zm-1.314,-1.629l0.071,-0.071l0.071,0.071l2.274,2.274l0,0l-0.874,0.874l0,0l-1.4,1.4l-0.071,0.072l-0.071,-0.072l-1.4,-1.4l0,0l-0.874,-0.874l0,0l2.274,-2.274l0,0zm0.071,0.37l-0.897,0.897l0.897,0.896l0.897,-0.896l-0.897,-0.897l0,0zm0,2.014l-0.897,0.896l0.897,0.897l0.897,-0.897l-0.897,-0.896l0,0zm-1.51,-0.487l0.268,0.267l0.11,0.11l-0.11,0.11l-0.268,0.268l0.047,0.047l0.424,-0.425l-0.424,-0.424l-0.047,0.047l0,0zm-0.212,0.228l-0.15,0.149l0.15,0.149l0.149,-0.149l-0.149,-0.149l0,0zm0.479,-0.496l0.534,0.535l0.111,0.11l-0.111,0.11l-0.534,0.535l0.133,0.134l0.779,-0.779l-0.779,-0.779l-0.133,0.134l0,0zm2.966,0.496l-0.149,0.149l0.149,0.149l0.15,-0.149l-0.15,-0.149l0,0zm-0.213,-0.228l-0.046,-0.047l-0.425,0.424l0.425,0.425l0.046,-0.047l-0.267,-0.268l-0.11,-0.11l0.11,-0.11l0.267,-0.267l0,0z" fill="#FFFFFF"/>
   <path id="svg_48" d="m46.597,31.561c-0.038,-0.049 -0.075,-0.099 -0.112,-0.147c-0.288,0.216 -0.575,0.433 -0.863,0.649c0.217,0.288 0.434,0.575 0.651,0.862c0.049,-0.037 0.098,-0.074 0.147,-0.112c-0.149,-0.197 -0.298,-0.395 -0.446,-0.592c-0.031,-0.041 -0.061,-0.082 -0.092,-0.123c0.04,-0.03 0.081,-0.061 0.122,-0.091c0.198,-0.149 0.395,-0.298 0.593,-0.446l0,0zm-1.055,-1.761c0.027,-0.02 0.054,-0.04 0.08,-0.059c0.02,0.026 0.039,0.052 0.059,0.079c0.632,0.839 1.265,1.678 1.896,2.518l0,0c-0.321,0.243 -0.644,0.485 -0.966,0.729l0,0c-0.517,0.39 -1.034,0.78 -1.55,1.169c-0.026,0.02 -0.053,0.039 -0.08,0.058c-0.019,-0.025 -0.039,-0.052 -0.058,-0.078c-0.39,-0.517 -0.779,-1.033 -1.169,-1.551l0,0c-0.243,-0.322 -0.486,-0.644 -0.729,-0.967l0,0c0.839,-0.633 1.679,-1.265 2.517,-1.898l0,0zm0.02,0.369c-0.332,0.25 -0.662,0.499 -0.993,0.749c0.25,0.331 0.5,0.662 0.749,0.993c0.331,-0.25 0.663,-0.499 0.993,-0.749c-0.25,-0.331 -0.499,-0.662 -0.749,-0.993l0,0zm-0.275,1.956c-0.33,0.25 -0.662,0.499 -0.993,0.749c0.249,0.332 0.499,0.662 0.748,0.993c0.332,-0.25 0.663,-0.499 0.994,-0.748c-0.25,-0.332 -0.5,-0.663 -0.749,-0.994l0,0zm-1.4,-0.68c0.075,0.099 0.148,0.197 0.222,0.295c0.031,0.041 0.062,0.082 0.093,0.123c-0.041,0.03 -0.082,0.061 -0.123,0.092c-0.098,0.074 -0.197,0.149 -0.295,0.224c0.013,0.017 0.025,0.034 0.039,0.052c0.157,-0.118 0.313,-0.236 0.47,-0.355c-0.118,-0.157 -0.236,-0.313 -0.354,-0.47c-0.017,0.013 -0.035,0.026 -0.052,0.039l0,0zm-0.238,0.193c-0.055,0.041 -0.11,0.083 -0.165,0.125c0.042,0.055 0.083,0.11 0.125,0.166c0.055,-0.042 0.109,-0.083 0.165,-0.125c-0.042,-0.056 -0.083,-0.111 -0.125,-0.166l0,0zm0.534,-0.416c0.149,0.198 0.297,0.395 0.446,0.592c0.031,0.041 0.062,0.082 0.092,0.122c-0.041,0.031 -0.081,0.061 -0.122,0.092c-0.198,0.148 -0.395,0.297 -0.592,0.446c0.037,0.049 0.075,0.099 0.111,0.148c0.288,-0.217 0.575,-0.433 0.862,-0.65c-0.216,-0.288 -0.433,-0.575 -0.65,-0.862c-0.048,0.037 -0.097,0.075 -0.147,0.112l0,0zm2.812,0.885c-0.055,0.042 -0.11,0.083 -0.165,0.125c0.042,0.055 0.083,0.11 0.126,0.165c0.054,-0.042 0.11,-0.083 0.165,-0.125c-0.043,-0.055 -0.084,-0.109 -0.126,-0.165l0,0zm-0.175,-0.25c-0.014,-0.018 -0.027,-0.035 -0.04,-0.052c-0.157,0.118 -0.314,0.236 -0.471,0.354c0.119,0.157 0.237,0.313 0.354,0.47c0.018,-0.013 0.035,-0.026 0.052,-0.039c-0.074,-0.099 -0.148,-0.198 -0.223,-0.296c-0.03,-0.041 -0.061,-0.081 -0.092,-0.122c0.042,-0.031 0.082,-0.062 0.123,-0.092c0.099,-0.074 0.198,-0.148 0.297,-0.223l0,0z" fill="#FFFFFF"/>
   <path id="svg_49" d="m51.341,32.782c-0.03,-0.054 -0.06,-0.108 -0.089,-0.163c-0.315,0.173 -0.63,0.347 -0.945,0.521c0.173,0.316 0.347,0.63 0.521,0.946c0.055,-0.03 0.108,-0.06 0.162,-0.089c-0.119,-0.216 -0.238,-0.433 -0.357,-0.649c-0.024,-0.045 -0.049,-0.089 -0.073,-0.134c0.044,-0.024 0.088,-0.049 0.133,-0.074c0.215,-0.119 0.432,-0.239 0.648,-0.358l0,0zm-0.793,-1.893c0.028,-0.016 0.058,-0.031 0.086,-0.047c0.016,0.028 0.031,0.057 0.047,0.086c0.508,0.92 1.016,1.841 1.521,2.762l0,0c-0.354,0.195 -0.707,0.389 -1.061,0.584l0,0c-0.565,0.312 -1.133,0.625 -1.7,0.937c-0.028,0.016 -0.057,0.032 -0.085,0.047c-0.017,-0.028 -0.032,-0.057 -0.047,-0.086c-0.313,-0.566 -0.625,-1.133 -0.938,-1.7l0,0c-0.195,-0.354 -0.39,-0.708 -0.584,-1.061l0,0c0.921,-0.507 1.841,-1.015 2.761,-1.522l0,0zm-0.033,0.368c-0.363,0.2 -0.727,0.399 -1.09,0.6c0.201,0.363 0.4,0.726 0.601,1.089c0.362,-0.201 0.726,-0.4 1.09,-0.601c-0.202,-0.362 -0.402,-0.725 -0.601,-1.088l0,0zm-0.55,1.897c-0.364,0.199 -0.727,0.4 -1.09,0.6c0.201,0.363 0.4,0.726 0.601,1.089c0.363,-0.2 0.726,-0.4 1.089,-0.6c-0.199,-0.363 -0.4,-0.726 -0.6,-1.089l0,0zm-1.289,-0.871c0.06,0.107 0.119,0.216 0.178,0.325c0.024,0.044 0.049,0.089 0.075,0.133c-0.045,0.025 -0.09,0.05 -0.135,0.074c-0.107,0.06 -0.216,0.12 -0.324,0.179c0.009,0.019 0.021,0.038 0.032,0.058c0.171,-0.095 0.343,-0.189 0.515,-0.284c-0.094,-0.173 -0.189,-0.345 -0.284,-0.517c-0.019,0.011 -0.038,0.021 -0.057,0.032l0,0zm-0.263,0.156c-0.061,0.033 -0.121,0.067 -0.182,0.1c0.033,0.061 0.067,0.122 0.101,0.181c0.06,-0.033 0.121,-0.066 0.181,-0.1c-0.034,-0.06 -0.066,-0.12 -0.1,-0.181l0,0zm0.587,-0.335c0.119,0.216 0.238,0.434 0.358,0.65c0.025,0.044 0.048,0.089 0.074,0.133c-0.044,0.025 -0.09,0.049 -0.134,0.074c-0.217,0.119 -0.434,0.239 -0.65,0.358c0.029,0.053 0.06,0.107 0.09,0.162c0.315,-0.174 0.631,-0.347 0.946,-0.521c-0.173,-0.314 -0.348,-0.63 -0.521,-0.945c-0.055,0.029 -0.109,0.059 -0.163,0.089l0,0zm2.659,1.275c-0.061,0.033 -0.121,0.067 -0.181,0.101c0.033,0.061 0.066,0.121 0.1,0.182c0.061,-0.034 0.121,-0.067 0.182,-0.1c-0.035,-0.062 -0.068,-0.123 -0.101,-0.183l0,0zm-0.138,-0.272c-0.01,-0.02 -0.021,-0.039 -0.031,-0.058c-0.172,0.095 -0.344,0.19 -0.516,0.285c0.094,0.172 0.189,0.344 0.285,0.515c0.017,-0.009 0.038,-0.021 0.056,-0.031c-0.06,-0.108 -0.119,-0.216 -0.179,-0.325c-0.025,-0.045 -0.049,-0.089 -0.074,-0.134c0.046,-0.024 0.09,-0.049 0.134,-0.073c0.109,-0.06 0.216,-0.119 0.325,-0.179l0,0z" fill="#FFFFFF"/>
   <path id="svg_50" d="m55.925,34.727l-0.067,-0.177l-1.03,0.392l0.393,1.03l0.177,-0.067l-0.27,-0.707l-0.056,-0.146l0.146,-0.055l0.707,-0.27l0,0zm-0.532,-2.024l0.094,-0.036l0.036,0.093l1.145,3.006l0,0l-1.155,0.44l0,0l-1.85,0.705l-0.094,0.036l-0.036,-0.094l-0.704,-1.851l0,0l-0.44,-1.155l0,0l3.004,-1.144l0,0zm-0.087,0.366l-1.185,0.452l0.451,1.186l1.185,-0.452l-0.451,-1.186l0,0zm-0.824,1.839l-1.185,0.451l0.452,1.185l1.185,-0.451l-0.452,-1.185l0,0zm-1.179,-1.064l0.134,0.354l0.056,0.146l-0.146,0.055l-0.354,0.135l0.023,0.062l0.562,-0.214l-0.215,-0.561l-0.06,0.023l0,0zm-0.286,0.121l-0.198,0.076l0.076,0.198l0.198,-0.075l-0.076,-0.199l0,0zm0.64,-0.256l0.27,0.707l0.055,0.146l-0.146,0.055l-0.706,0.271l0.067,0.176l1.029,-0.391l-0.392,-1.03l-0.177,0.066l0,0zm2.504,1.666l-0.198,0.076l0.076,0.198l0.198,-0.075l-0.076,-0.199l0,0zm-0.1,-0.295l-0.023,-0.062l-0.561,0.213l0.213,0.561l0.062,-0.023l-0.134,-0.354l-0.056,-0.146l0.146,-0.056l0.353,-0.133l0,0z" fill="#FFFFFF"/>
   <path id="svg_51" d="m34.184,31.48c0.038,-0.049 0.075,-0.099 0.111,-0.148c0.288,0.216 0.575,0.433 0.863,0.65c-0.217,0.288 -0.434,0.575 -0.65,0.862c-0.049,-0.037 -0.098,-0.075 -0.148,-0.112c0.149,-0.198 0.299,-0.395 0.447,-0.592c0.031,-0.042 0.061,-0.082 0.092,-0.123c-0.041,-0.03 -0.082,-0.061 -0.123,-0.091c-0.196,-0.148 -0.394,-0.297 -0.592,-0.446l0,0zm1.054,-1.76c-0.026,-0.02 -0.053,-0.04 -0.079,-0.059c-0.02,0.026 -0.039,0.052 -0.06,0.079c-0.632,0.839 -1.265,1.678 -1.897,2.518l0,0c0.323,0.243 0.645,0.485 0.967,0.729l0,0c0.517,0.39 1.034,0.779 1.551,1.168c0.026,0.02 0.052,0.04 0.079,0.059c0.019,-0.026 0.04,-0.052 0.059,-0.079c0.389,-0.516 0.779,-1.033 1.168,-1.55l0,0c0.244,-0.323 0.485,-0.645 0.729,-0.967l0,0c-0.838,-0.633 -1.677,-1.265 -2.517,-1.898l0,0zm-0.018,0.368c0.332,0.25 0.662,0.499 0.993,0.749c-0.249,0.331 -0.499,0.662 -0.748,0.993c-0.332,-0.25 -0.663,-0.499 -0.993,-0.749c0.249,-0.33 0.499,-0.662 0.748,-0.993l0,0zm0.275,1.956c0.331,0.25 0.662,0.499 0.993,0.748c-0.25,0.331 -0.5,0.662 -0.749,0.993c-0.331,-0.25 -0.662,-0.499 -0.992,-0.748c0.248,-0.331 0.498,-0.662 0.748,-0.993l0,0zm1.4,-0.679c-0.074,0.098 -0.149,0.197 -0.224,0.296c-0.031,0.041 -0.061,0.081 -0.092,0.123c0.041,0.03 0.082,0.061 0.123,0.091c0.099,0.075 0.198,0.149 0.296,0.223c-0.013,0.017 -0.026,0.035 -0.04,0.052c-0.156,-0.118 -0.313,-0.236 -0.47,-0.354c0.118,-0.157 0.236,-0.314 0.354,-0.471c0.017,0.013 0.035,0.026 0.053,0.04l0,0zm0.237,0.192c0.055,0.042 0.11,0.083 0.165,0.125c-0.041,0.055 -0.083,0.11 -0.124,0.165c-0.056,-0.042 -0.111,-0.083 -0.165,-0.125c0.041,-0.055 0.082,-0.11 0.124,-0.165l0,0zm-0.534,-0.415c-0.147,0.197 -0.297,0.394 -0.446,0.592c-0.03,0.041 -0.061,0.082 -0.092,0.122c0.041,0.031 0.082,0.062 0.122,0.092c0.198,0.149 0.396,0.297 0.593,0.447c-0.037,0.049 -0.074,0.098 -0.112,0.147c-0.287,-0.217 -0.574,-0.433 -0.862,-0.65c0.216,-0.288 0.433,-0.575 0.65,-0.862c0.049,0.037 0.098,0.074 0.147,0.112l0,0zm-2.811,0.885c0.055,0.042 0.11,0.083 0.165,0.125c-0.042,0.056 -0.083,0.111 -0.124,0.166c-0.055,-0.042 -0.111,-0.083 -0.166,-0.125c0.041,-0.056 0.083,-0.11 0.125,-0.166l0,0zm0.174,-0.25c0.014,-0.018 0.026,-0.035 0.04,-0.053c0.156,0.118 0.313,0.236 0.471,0.354c-0.12,0.157 -0.237,0.314 -0.355,0.471c-0.017,-0.014 -0.034,-0.026 -0.052,-0.04c0.074,-0.099 0.148,-0.198 0.223,-0.296c0.03,-0.041 0.062,-0.081 0.091,-0.122c-0.04,-0.03 -0.08,-0.061 -0.122,-0.092c-0.098,-0.073 -0.197,-0.147 -0.296,-0.222l0,0z" fill="#FFFFFF"/>
   <path id="svg_52" d="m29.439,32.702c0.03,-0.055 0.06,-0.108 0.09,-0.163c0.316,0.174 0.63,0.348 0.946,0.521c-0.173,0.315 -0.347,0.63 -0.521,0.946c-0.054,-0.03 -0.108,-0.06 -0.162,-0.089c0.12,-0.217 0.239,-0.434 0.358,-0.65c0.025,-0.045 0.049,-0.089 0.074,-0.134c-0.045,-0.024 -0.089,-0.049 -0.135,-0.074c-0.215,-0.12 -0.432,-0.239 -0.65,-0.357l0,0zm0.794,-1.893c-0.029,-0.016 -0.058,-0.032 -0.086,-0.047c-0.016,0.029 -0.032,0.058 -0.047,0.086c-0.507,0.92 -1.015,1.841 -1.521,2.761l0,0c0.354,0.195 0.707,0.39 1.061,0.584l0,0c0.566,0.313 1.133,0.625 1.7,0.938c0.028,0.016 0.058,0.032 0.086,0.048c0.016,-0.029 0.032,-0.058 0.047,-0.086c0.312,-0.567 0.625,-1.135 0.937,-1.701l0,0c0.195,-0.353 0.39,-0.707 0.584,-1.061l0,0c-0.921,-0.508 -1.841,-1.015 -2.761,-1.522l0,0zm0.034,0.368c0.363,0.2 0.726,0.399 1.089,0.6c-0.2,0.363 -0.4,0.726 -0.6,1.089c-0.362,-0.2 -0.725,-0.4 -1.089,-0.6c0.2,-0.363 0.4,-0.726 0.6,-1.089l0,0zm0.549,1.897c0.363,0.2 0.726,0.399 1.089,0.6c-0.2,0.363 -0.4,0.726 -0.6,1.089c-0.363,-0.201 -0.726,-0.4 -1.089,-0.6c0.201,-0.364 0.4,-0.727 0.6,-1.089l0,0zm1.289,-0.872c-0.059,0.108 -0.119,0.216 -0.179,0.325c-0.024,0.044 -0.05,0.089 -0.073,0.134c0.044,0.025 0.089,0.049 0.133,0.074c0.109,0.06 0.217,0.12 0.325,0.179c-0.01,0.019 -0.021,0.038 -0.031,0.057c-0.172,-0.094 -0.344,-0.188 -0.517,-0.284c0.096,-0.171 0.19,-0.344 0.285,-0.516c0.02,0.01 0.039,0.02 0.057,0.031l0,0zm0.263,0.157c0.061,0.034 0.121,0.067 0.182,0.1c-0.033,0.061 -0.067,0.121 -0.1,0.182c-0.061,-0.033 -0.121,-0.067 -0.181,-0.1c0.032,-0.061 0.065,-0.122 0.099,-0.182l0,0zm-0.587,-0.336c-0.12,0.217 -0.239,0.434 -0.358,0.65c-0.024,0.044 -0.049,0.088 -0.074,0.133c0.045,0.024 0.089,0.049 0.133,0.074c0.217,0.119 0.434,0.239 0.651,0.357c-0.03,0.054 -0.06,0.107 -0.09,0.163c-0.316,-0.174 -0.63,-0.347 -0.946,-0.522c0.173,-0.314 0.347,-0.63 0.521,-0.945c0.055,0.031 0.108,0.06 0.163,0.09l0,0zm-2.659,1.276c0.062,0.033 0.122,0.066 0.183,0.101c-0.033,0.06 -0.067,0.121 -0.101,0.181c-0.06,-0.033 -0.121,-0.066 -0.181,-0.099c0.033,-0.062 0.066,-0.123 0.099,-0.183l0,0zm0.139,-0.273c0.011,-0.02 0.021,-0.039 0.031,-0.057c0.172,0.094 0.344,0.189 0.516,0.284c-0.095,0.171 -0.189,0.344 -0.284,0.516c-0.019,-0.011 -0.039,-0.021 -0.058,-0.031c0.06,-0.108 0.12,-0.217 0.179,-0.326c0.025,-0.044 0.049,-0.088 0.074,-0.133c-0.044,-0.024 -0.089,-0.049 -0.133,-0.074c-0.108,-0.06 -0.217,-0.12 -0.325,-0.179l0,0z" fill="#FFFFFF"/>
   <path id="svg_53" d="m24.855,34.646l0.068,-0.176l1.029,0.392l-0.392,1.029l-0.177,-0.066l0.269,-0.708l0.056,-0.146l-0.145,-0.055l-0.708,-0.27l0,0zm0.533,-2.024l-0.093,-0.035l-0.035,0.093l-1.146,3.006l0,0l1.155,0.439l0,0l1.85,0.705l0.094,0.036l0.036,-0.094l0.706,-1.85l0,0l0.439,-1.155l0,0l-3.006,-1.145l0,0zm0.087,0.367l1.185,0.451l-0.451,1.186l-1.185,-0.452l0.451,-1.185l0,0zm0.824,1.837l1.186,0.453l-0.452,1.185l-1.186,-0.451l0.452,-1.187l0,0zm1.18,-1.062l-0.135,0.354l-0.055,0.146l0.145,0.056l0.354,0.135l-0.024,0.062l-0.561,-0.214l0.214,-0.561l0.062,0.022l0,0zm0.286,0.121l0.197,0.076l-0.075,0.197l-0.197,-0.075l0.075,-0.198l0,0zm-0.64,-0.256l-0.271,0.707l-0.054,0.146l0.146,0.055l0.706,0.27l-0.066,0.177l-1.029,-0.392l0.391,-1.029l0.177,0.066l0,0zm-2.505,1.665l0.198,0.076l-0.075,0.198l-0.197,-0.075l0.074,-0.199l0,0zm0.101,-0.295l0.024,-0.062l0.561,0.214l-0.213,0.561l-0.062,-0.023l0.134,-0.354l0.056,-0.146l-0.146,-0.055l-0.354,-0.135l0,0z" fill="#FFFFFF"/>
  </g>
 </g>
</svg>